<svg version="1.1" viewBox="0.0 0.0 758.0 447.0" fill="none" stroke="none" stroke-linecap="square" stroke-miterlimit="10" width="758" height="447" xmlns:xlink="http://www.w3.org/1999/xlink" xmlns="http://www.w3.org/2000/svg"><path fill="#ffffff" d="M0 0L758.0 0L758.0 447.0L0 447.0L0 0Z" fill-rule="nonzero"/><path stroke="#333333" stroke-width="1.0" stroke-linecap="butt" d="M89.5 368.5L735.5 368.5" fill-rule="nonzero"/><path stroke="#cccccc" stroke-width="1.0" stroke-linecap="butt" d="M89.5 301.5L735.5 301.5" fill-rule="nonzero"/><path stroke="#cccccc" stroke-width="1.0" stroke-linecap="butt" d="M89.5 234.5L735.5 234.5" fill-rule="nonzero"/><path stroke="#cccccc" stroke-width="1.0" stroke-linecap="butt" d="M89.5 167.5L735.5 167.5" fill-rule="nonzero"/><path stroke="#cccccc" stroke-width="1.0" stroke-linecap="butt" d="M89.5 100.5L735.5 100.5" fill-rule="nonzero"/><clipPath id="id_0"><path d="M89.35 100.15L735.65 100.15L735.65 368.65L89.35 368.65L89.35 100.15Z" clip-rule="nonzero"/></clipPath><path stroke="#000000" stroke-width="2.0" stroke-linecap="butt" stroke-opacity="0.0" clip-path="url(#id_0)" d="M124.0 369.0L112.0 369.0L112.0 181.0C112.0 179.89543 112.89543 179.0 114.0 179.0L122.0 179.0C123.10457 179.0 124.0 179.89543 124.0 181.0Z" fill-rule="nonzero"/><path fill="#4285f4" clip-path="url(#id_0)" d="M124.0 369.0L112.0 369.0L112.0 181.0C112.0 179.89543 112.89543 179.0 114.0 179.0L122.0 179.0C123.10457 179.0 124.0 179.89543 124.0 181.0Z" fill-rule="nonzero"/><path stroke="#000000" stroke-width="2.0" stroke-linecap="butt" stroke-opacity="0.0" clip-path="url(#id_0)" d="M186.0 369.0L174.0 369.0L174.0 255.0C174.0 253.89543 174.89543 253.0 176.0 253.0L184.0 253.0C185.10457 253.0 186.0 253.89543 186.0 255.0Z" fill-rule="nonzero"/><path fill="#4285f4" clip-path="url(#id_0)" d="M186.0 369.0L174.0 369.0L174.0 255.0C174.0 253.89543 174.89543 253.0 176.0 253.0L184.0 253.0C185.10457 253.0 186.0 253.89543 186.0 255.0Z" fill-rule="nonzero"/><path stroke="#000000" stroke-width="2.0" stroke-linecap="butt" stroke-opacity="0.0" clip-path="url(#id_0)" d="M248.0 369.0L236.0 369.0L236.0 240.0C236.0 238.89543 236.89543 238.0 238.0 238.0L246.0 238.0C247.10457 238.0 248.0 238.89543 248.0 240.0Z" fill-rule="nonzero"/><path fill="#4285f4" clip-path="url(#id_0)" d="M248.0 369.0L236.0 369.0L236.0 240.0C236.0 238.89543 236.89543 238.0 238.0 238.0L246.0 238.0C247.10457 238.0 248.0 238.89543 248.0 240.0Z" fill-rule="nonzero"/><path stroke="#000000" stroke-width="2.0" stroke-linecap="butt" stroke-opacity="0.0" clip-path="url(#id_0)" d="M311.0 369.0L299.0 369.0L299.0 250.0C299.0 248.89543 299.89542 248.0 301.0 248.0L309.0 248.0C310.10458 248.0 311.0 248.89543 311.0 250.0Z" fill-rule="nonzero"/><path fill="#4285f4" clip-path="url(#id_0)" d="M311.0 369.0L299.0 369.0L299.0 250.0C299.0 248.89543 299.89542 248.0 301.0 248.0L309.0 248.0C310.10458 248.0 311.0 248.89543 311.0 250.0Z" fill-rule="nonzero"/><path stroke="#000000" stroke-width="2.0" stroke-linecap="butt" stroke-opacity="0.0" clip-path="url(#id_0)" d="M373.0 369.0L361.0 369.0L361.0 234.0C361.0 232.89543 361.89542 232.0 363.0 232.0L371.0 232.0C372.10458 232.0 373.0 232.89543 373.0 234.0Z" fill-rule="nonzero"/><path fill="#4285f4" clip-path="url(#id_0)" d="M373.0 369.0L361.0 369.0L361.0 234.0C361.0 232.89543 361.89542 232.0 363.0 232.0L371.0 232.0C372.10458 232.0 373.0 232.89543 373.0 234.0Z" fill-rule="nonzero"/><path stroke="#000000" stroke-width="2.0" stroke-linecap="butt" stroke-opacity="0.0" clip-path="url(#id_0)" d="M436.0 369.0L424.0 369.0L424.0 196.0C424.0 194.89543 424.89542 194.0 426.0 194.0L434.0 194.0C435.10458 194.0 436.0 194.89543 436.0 196.0Z" fill-rule="nonzero"/><path fill="#4285f4" clip-path="url(#id_0)" d="M436.0 369.0L424.0 369.0L424.0 196.0C424.0 194.89543 424.89542 194.0 426.0 194.0L434.0 194.0C435.10458 194.0 436.0 194.89543 436.0 196.0Z" fill-rule="nonzero"/><path stroke="#000000" stroke-width="2.0" stroke-linecap="butt" stroke-opacity="0.0" clip-path="url(#id_0)" d="M498.0 369.0L486.0 369.0L486.0 254.0C486.0 252.89543 486.89542 252.0 488.0 252.0L496.0 252.0C497.10458 252.0 498.0 252.89543 498.0 254.0Z" fill-rule="nonzero"/><path fill="#4285f4" clip-path="url(#id_0)" d="M498.0 369.0L486.0 369.0L486.0 254.0C486.0 252.89543 486.89542 252.0 488.0 252.0L496.0 252.0C497.10458 252.0 498.0 252.89543 498.0 254.0Z" fill-rule="nonzero"/><path stroke="#000000" stroke-width="2.0" stroke-linecap="butt" stroke-opacity="0.0" clip-path="url(#id_0)" d="M561.0 369.0L549.0 369.0L549.0 258.0C549.0 256.89542 549.89545 256.0 551.0 256.0L559.0 256.0C560.10455 256.0 561.0 256.89542 561.0 258.0Z" fill-rule="nonzero"/><path fill="#4285f4" clip-path="url(#id_0)" d="M561.0 369.0L549.0 369.0L549.0 258.0C549.0 256.89542 549.89545 256.0 551.0 256.0L559.0 256.0C560.10455 256.0 561.0 256.89542 561.0 258.0Z" fill-rule="nonzero"/><path stroke="#000000" stroke-width="2.0" stroke-linecap="butt" stroke-opacity="0.0" clip-path="url(#id_0)" d="M623.0 369.0L611.0 369.0L611.0 255.0C611.0 253.89543 611.89545 253.0 613.0 253.0L621.0 253.0C622.10455 253.0 623.0 253.89543 623.0 255.0Z" fill-rule="nonzero"/><path fill="#4285f4" clip-path="url(#id_0)" d="M623.0 369.0L611.0 369.0L611.0 255.0C611.0 253.89543 611.89545 253.0 613.0 253.0L621.0 253.0C622.10455 253.0 623.0 253.89543 623.0 255.0Z" fill-rule="nonzero"/><path stroke="#000000" stroke-width="2.0" stroke-linecap="butt" stroke-opacity="0.0" clip-path="url(#id_0)" d="M686.0 369.0L674.0 369.0L674.0 254.0C674.0 252.89543 674.89545 252.0 676.0 252.0L684.0 252.0C685.10455 252.0 686.0 252.89543 686.0 254.0Z" fill-rule="nonzero"/><path fill="#4285f4" clip-path="url(#id_0)" d="M686.0 369.0L674.0 369.0L674.0 254.0C674.0 252.89543 674.89545 252.0 676.0 252.0L684.0 252.0C685.10455 252.0 686.0 252.89543 686.0 254.0Z" fill-rule="nonzero"/><path stroke="#000000" stroke-width="2.0" stroke-linecap="butt" stroke-opacity="0.0" clip-path="url(#id_0)" d="M138.0 369.0L126.0 369.0L126.0 260.0C126.0 258.89542 126.89543 258.0 128.0 258.0L136.0 258.0C137.10457 258.0 138.0 258.89542 138.0 260.0Z" fill-rule="nonzero"/><path fill="#db4437" clip-path="url(#id_0)" d="M138.0 369.0L126.0 369.0L126.0 260.0C126.0 258.89542 126.89543 258.0 128.0 258.0L136.0 258.0C137.10457 258.0 138.0 258.89542 138.0 260.0Z" fill-rule="nonzero"/><path stroke="#000000" stroke-width="2.0" stroke-linecap="butt" stroke-opacity="0.0" clip-path="url(#id_0)" d="M200.0 369.0L188.0 369.0L188.0 216.0C188.0 214.89543 188.89543 214.0 190.0 214.0L198.0 214.0C199.10457 214.0 200.0 214.89543 200.0 216.0Z" fill-rule="nonzero"/><path fill="#db4437" clip-path="url(#id_0)" d="M200.0 369.0L188.0 369.0L188.0 216.0C188.0 214.89543 188.89543 214.0 190.0 214.0L198.0 214.0C199.10457 214.0 200.0 214.89543 200.0 216.0Z" fill-rule="nonzero"/><path stroke="#000000" stroke-width="2.0" stroke-linecap="butt" stroke-opacity="0.0" clip-path="url(#id_0)" d="M262.0 369.0L250.0 369.0L250.0 271.0C250.0 269.89542 250.89543 269.0 252.0 269.0L260.0 269.0C261.10458 269.0 262.0 269.89542 262.0 271.0Z" fill-rule="nonzero"/><path fill="#db4437" clip-path="url(#id_0)" d="M262.0 369.0L250.0 369.0L250.0 271.0C250.0 269.89542 250.89543 269.0 252.0 269.0L260.0 269.0C261.10458 269.0 262.0 269.89542 262.0 271.0Z" fill-rule="nonzero"/><path stroke="#000000" stroke-width="2.0" stroke-linecap="butt" stroke-opacity="0.0" clip-path="url(#id_0)" d="M325.0 369.0L313.0 369.0L313.0 254.0C313.0 252.89543 313.89542 252.0 315.0 252.0L323.0 252.0C324.10458 252.0 325.0 252.89543 325.0 254.0Z" fill-rule="nonzero"/><path fill="#db4437" clip-path="url(#id_0)" d="M325.0 369.0L313.0 369.0L313.0 254.0C313.0 252.89543 313.89542 252.0 315.0 252.0L323.0 252.0C324.10458 252.0 325.0 252.89543 325.0 254.0Z" fill-rule="nonzero"/><path stroke="#000000" stroke-width="2.0" stroke-linecap="butt" stroke-opacity="0.0" clip-path="url(#id_0)" d="M387.0 369.0L375.0 369.0L375.0 198.0C375.0 196.89543 375.89542 196.0 377.0 196.0L385.0 196.0C386.10458 196.0 387.0 196.89543 387.0 198.0Z" fill-rule="nonzero"/><path fill="#db4437" clip-path="url(#id_0)" d="M387.0 369.0L375.0 369.0L375.0 198.0C375.0 196.89543 375.89542 196.0 377.0 196.0L385.0 196.0C386.10458 196.0 387.0 196.89543 387.0 198.0Z" fill-rule="nonzero"/><path stroke="#000000" stroke-width="2.0" stroke-linecap="butt" stroke-opacity="0.0" clip-path="url(#id_0)" d="M450.0 369.0L438.0 369.0L438.0 268.0C438.0 266.89542 438.89542 266.0 440.0 266.0L448.0 266.0C449.10458 266.0 450.0 266.89542 450.0 268.0Z" fill-rule="nonzero"/><path fill="#db4437" clip-path="url(#id_0)" d="M450.0 369.0L438.0 369.0L438.0 268.0C438.0 266.89542 438.89542 266.0 440.0 266.0L448.0 266.0C449.10458 266.0 450.0 266.89542 450.0 268.0Z" fill-rule="nonzero"/><path stroke="#000000" stroke-width="2.0" stroke-linecap="butt" stroke-opacity="0.0" clip-path="url(#id_0)" d="M512.0 369.0L500.0 369.0L500.0 213.0C500.0 211.89543 500.89542 211.0 502.0 211.0L510.0 211.0C511.10458 211.0 512.0 211.89543 512.0 213.0Z" fill-rule="nonzero"/><path fill="#db4437" clip-path="url(#id_0)" d="M512.0 369.0L500.0 369.0L500.0 213.0C500.0 211.89543 500.89542 211.0 502.0 211.0L510.0 211.0C511.10458 211.0 512.0 211.89543 512.0 213.0Z" fill-rule="nonzero"/><path stroke="#000000" stroke-width="2.0" stroke-linecap="butt" stroke-opacity="0.0" clip-path="url(#id_0)" d="M575.0 369.0L563.0 369.0L563.0 256.0C563.0 254.89543 563.89545 254.0 565.0 254.0L573.0 254.0C574.10455 254.0 575.0 254.89543 575.0 256.0Z" fill-rule="nonzero"/><path fill="#db4437" clip-path="url(#id_0)" d="M575.0 369.0L563.0 369.0L563.0 256.0C563.0 254.89543 563.89545 254.0 565.0 254.0L573.0 254.0C574.10455 254.0 575.0 254.89543 575.0 256.0Z" fill-rule="nonzero"/><path stroke="#000000" stroke-width="2.0" stroke-linecap="butt" stroke-opacity="0.0" clip-path="url(#id_0)" d="M637.0 369.0L625.0 369.0L625.0 255.0C625.0 253.89543 625.89545 253.0 627.0 253.0L635.0 253.0C636.10455 253.0 637.0 253.89543 637.0 255.0Z" fill-rule="nonzero"/><path fill="#db4437" clip-path="url(#id_0)" d="M637.0 369.0L625.0 369.0L625.0 255.0C625.0 253.89543 625.89545 253.0 627.0 253.0L635.0 253.0C636.10455 253.0 637.0 253.89543 637.0 255.0Z" fill-rule="nonzero"/><path stroke="#000000" stroke-width="2.0" stroke-linecap="butt" stroke-opacity="0.0" clip-path="url(#id_0)" d="M700.0 369.0L688.0 369.0L688.0 236.0C688.0 234.89543 688.89545 234.0 690.0 234.0L698.0 234.0C699.10455 234.0 700.0 234.89543 700.0 236.0Z" fill-rule="nonzero"/><path fill="#db4437" clip-path="url(#id_0)" d="M700.0 369.0L688.0 369.0L688.0 236.0C688.0 234.89543 688.89545 234.0 690.0 234.0L698.0 234.0C699.10455 234.0 700.0 234.89543 700.0 236.0Z" fill-rule="nonzero"/><path stroke="#000000" stroke-width="2.0" stroke-linecap="butt" stroke-opacity="0.0" clip-path="url(#id_0)" d="M152.0 369.0L140.0 369.0L140.0 222.0C140.0 220.89543 140.89543 220.0 142.0 220.0L150.0 220.0C151.10457 220.0 152.0 220.89543 152.0 222.0Z" fill-rule="nonzero"/><path fill="#f4b400" clip-path="url(#id_0)" d="M152.0 369.0L140.0 369.0L140.0 222.0C140.0 220.89543 140.89543 220.0 142.0 220.0L150.0 220.0C151.10457 220.0 152.0 220.89543 152.0 222.0Z" fill-rule="nonzero"/><path stroke="#000000" stroke-width="2.0" stroke-linecap="butt" stroke-opacity="0.0" clip-path="url(#id_0)" d="M214.0 369.0L202.0 369.0L202.0 231.0C202.0 229.89543 202.89543 229.0 204.0 229.0L212.0 229.0C213.10457 229.0 214.0 229.89543 214.0 231.0Z" fill-rule="nonzero"/><path fill="#f4b400" clip-path="url(#id_0)" d="M214.0 369.0L202.0 369.0L202.0 231.0C202.0 229.89543 202.89543 229.0 204.0 229.0L212.0 229.0C213.10457 229.0 214.0 229.89543 214.0 231.0Z" fill-rule="nonzero"/><path stroke="#000000" stroke-width="2.0" stroke-linecap="butt" stroke-opacity="0.0" clip-path="url(#id_0)" d="M276.0 369.0L264.0 369.0L264.0 201.0C264.0 199.89543 264.89542 199.0 266.0 199.0L274.0 199.0C275.10458 199.0 276.0 199.89543 276.0 201.0Z" fill-rule="nonzero"/><path fill="#f4b400" clip-path="url(#id_0)" d="M276.0 369.0L264.0 369.0L264.0 201.0C264.0 199.89543 264.89542 199.0 266.0 199.0L274.0 199.0C275.10458 199.0 276.0 199.89543 276.0 201.0Z" fill-rule="nonzero"/><path stroke="#000000" stroke-width="2.0" stroke-linecap="butt" stroke-opacity="0.0" clip-path="url(#id_0)" d="M339.0 369.0L327.0 369.0L327.0 161.0C327.0 159.89543 327.89542 159.0 329.0 159.0L337.0 159.0C338.10458 159.0 339.0 159.89543 339.0 161.0Z" fill-rule="nonzero"/><path fill="#f4b400" clip-path="url(#id_0)" d="M339.0 369.0L327.0 369.0L327.0 161.0C327.0 159.89543 327.89542 159.0 329.0 159.0L337.0 159.0C338.10458 159.0 339.0 159.89543 339.0 161.0Z" fill-rule="nonzero"/><path stroke="#000000" stroke-width="2.0" stroke-linecap="butt" stroke-opacity="0.0" clip-path="url(#id_0)" d="M401.0 369.0L389.0 369.0L389.0 198.0C389.0 196.89543 389.89542 196.0 391.0 196.0L399.0 196.0C400.10458 196.0 401.0 196.89543 401.0 198.0Z" fill-rule="nonzero"/><path fill="#f4b400" clip-path="url(#id_0)" d="M401.0 369.0L389.0 369.0L389.0 198.0C389.0 196.89543 389.89542 196.0 391.0 196.0L399.0 196.0C400.10458 196.0 401.0 196.89543 401.0 198.0Z" fill-rule="nonzero"/><path stroke="#000000" stroke-width="2.0" stroke-linecap="butt" stroke-opacity="0.0" clip-path="url(#id_0)" d="M464.0 369.0L452.0 369.0L452.0 160.0C452.0 158.89543 452.89542 158.0 454.0 158.0L462.0 158.0C463.10458 158.0 464.0 158.89543 464.0 160.0Z" fill-rule="nonzero"/><path fill="#f4b400" clip-path="url(#id_0)" d="M464.0 369.0L452.0 369.0L452.0 160.0C452.0 158.89543 452.89542 158.0 454.0 158.0L462.0 158.0C463.10458 158.0 464.0 158.89543 464.0 160.0Z" fill-rule="nonzero"/><path stroke="#000000" stroke-width="2.0" stroke-linecap="butt" stroke-opacity="0.0" clip-path="url(#id_0)" d="M526.0 369.0L514.0 369.0L514.0 197.0C514.0 195.89543 514.89545 195.0 516.0 195.0L524.0 195.0C525.10455 195.0 526.0 195.89543 526.0 197.0Z" fill-rule="nonzero"/><path fill="#f4b400" clip-path="url(#id_0)" d="M526.0 369.0L514.0 369.0L514.0 197.0C514.0 195.89543 514.89545 195.0 516.0 195.0L524.0 195.0C525.10455 195.0 526.0 195.89543 526.0 197.0Z" fill-rule="nonzero"/><path stroke="#000000" stroke-width="2.0" stroke-linecap="butt" stroke-opacity="0.0" clip-path="url(#id_0)" d="M589.0 369.0L577.0 369.0L577.0 230.0C577.0 228.89543 577.89545 228.0 579.0 228.0L587.0 228.0C588.10455 228.0 589.0 228.89543 589.0 230.0Z" fill-rule="nonzero"/><path fill="#f4b400" clip-path="url(#id_0)" d="M589.0 369.0L577.0 369.0L577.0 230.0C577.0 228.89543 577.89545 228.0 579.0 228.0L587.0 228.0C588.10455 228.0 589.0 228.89543 589.0 230.0Z" fill-rule="nonzero"/><path stroke="#000000" stroke-width="2.0" stroke-linecap="butt" stroke-opacity="0.0" clip-path="url(#id_0)" d="M651.0 369.0L639.0 369.0L639.0 164.0C639.0 162.89543 639.89545 162.0 641.0 162.0L649.0 162.0C650.10455 162.0 651.0 162.89543 651.0 164.0Z" fill-rule="nonzero"/><path fill="#f4b400" clip-path="url(#id_0)" d="M651.0 369.0L639.0 369.0L639.0 164.0C639.0 162.89543 639.89545 162.0 641.0 162.0L649.0 162.0C650.10455 162.0 651.0 162.89543 651.0 164.0Z" fill-rule="nonzero"/><path stroke="#000000" stroke-width="2.0" stroke-linecap="butt" stroke-opacity="0.0" clip-path="url(#id_0)" d="M714.0 369.0L702.0 369.0L702.0 248.0C702.0 246.89543 702.89545 246.0 704.0 246.0L712.0 246.0C713.10455 246.0 714.0 246.89543 714.0 248.0Z" fill-rule="nonzero"/><path fill="#f4b400" clip-path="url(#id_0)" d="M714.0 369.0L702.0 369.0L702.0 248.0C702.0 246.89543 702.89545 246.0 704.0 246.0L712.0 246.0C713.10455 246.0 714.0 246.89543 714.0 248.0Z" fill-rule="nonzero"/><path stroke="#3d85c6" stroke-width="4.0" stroke-linecap="butt" stroke-dasharray="4.0,5.0" clip-path="url(#id_0)" d="M131.5 235.72908L193.94444 235.72908L256.3889 235.72908L318.83334 235.72908L381.27777 235.72908L443.72223 235.72908L506.16666 235.72908L568.6111 235.72908L631.05554 235.72908L693.5 235.72908" fill-rule="nonzero"/><path stroke="#ff0000" stroke-width="4.0" stroke-linecap="butt" stroke-opacity="0.9019608" stroke-dasharray="4.0,5.0" clip-path="url(#id_0)" d="M131.5 240.7366L193.94444 240.7366L256.3889 240.7366L318.83334 240.7366L381.27777 240.7366L443.72223 240.7366L506.16666 240.7366L568.6111 240.7366L631.05554 240.7366L693.5 240.7366" fill-rule="nonzero"/><path stroke="#f1c232" stroke-width="4.0" stroke-linecap="butt" stroke-dasharray="4.0,5.0" clip-path="url(#id_0)" d="M131.5 199.25336L193.94444 199.25336L256.3889 199.25336L318.83334 199.25336L381.27777 199.25336L443.72223 199.25336L506.16666 199.25336L568.6111 199.25336L631.05554 199.25336L693.5 199.25336" fill-rule="nonzero"/><path fill="#000000" fill-opacity="0.0" clip-path="url(#id_0)" d="M134.5 235.72908C134.5 237.38593 133.15686 238.72908 131.5 238.72908C129.84314 238.72908 128.5 237.38593 128.5 235.72908C128.5 234.07222 129.84314 232.72908 131.5 232.72908C133.15686 232.72908 134.5 234.07222 134.5 235.72908Z" fill-rule="nonzero"/><path fill="#000000" fill-opacity="0.0" clip-path="url(#id_0)" d="M196.94444 235.72908C196.94444 237.38593 195.6013 238.72908 193.94444 238.72908C192.2876 238.72908 190.94444 237.38593 190.94444 235.72908C190.94444 234.07222 192.2876 232.72908 193.94444 232.72908C195.6013 232.72908 196.94444 234.07222 196.94444 235.72908Z" fill-rule="nonzero"/><path fill="#000000" fill-opacity="0.0" clip-path="url(#id_0)" d="M259.3889 235.72908C259.3889 237.38593 258.04575 238.72908 256.3889 238.72908C254.73204 238.72908 253.38889 237.38593 253.38889 235.72908C253.38889 234.07222 254.73204 232.72908 256.3889 232.72908C258.04575 232.72908 259.3889 234.07222 259.3889 235.72908Z" fill-rule="nonzero"/><path fill="#000000" fill-opacity="0.0" clip-path="url(#id_0)" d="M321.83334 235.72908C321.83334 237.38593 320.49017 238.72908 318.83334 238.72908C317.17648 238.72908 315.83334 237.38593 315.83334 235.72908C315.83334 234.07222 317.17648 232.72908 318.83334 232.72908C320.49017 232.72908 321.83334 234.07222 321.83334 235.72908Z" fill-rule="nonzero"/><path fill="#000000" fill-opacity="0.0" clip-path="url(#id_0)" d="M384.27777 235.72908C384.27777 237.38593 382.93463 238.72908 381.27777 238.72908C379.6209 238.72908 378.27777 237.38593 378.27777 235.72908C378.27777 234.07222 379.6209 232.72908 381.27777 232.72908C382.93463 232.72908 384.27777 234.07222 384.27777 235.72908Z" fill-rule="nonzero"/><path fill="#000000" fill-opacity="0.0" clip-path="url(#id_0)" d="M446.72223 235.72908C446.72223 237.38593 445.3791 238.72908 443.72223 238.72908C442.06537 238.72908 440.72223 237.38593 440.72223 235.72908C440.72223 234.07222 442.06537 232.72908 443.72223 232.72908C445.3791 232.72908 446.72223 234.07222 446.72223 235.72908Z" fill-rule="nonzero"/><path fill="#000000" fill-opacity="0.0" clip-path="url(#id_0)" d="M509.16666 235.72908C509.16666 237.38593 507.82352 238.72908 506.16666 238.72908C504.50983 238.72908 503.16666 237.38593 503.16666 235.72908C503.16666 234.07222 504.50983 232.72908 506.16666 232.72908C507.82352 232.72908 509.16666 234.07222 509.16666 235.72908Z" fill-rule="nonzero"/><path fill="#000000" fill-opacity="0.0" clip-path="url(#id_0)" d="M571.6111 235.72908C571.6111 237.38593 570.26794 238.72908 568.6111 238.72908C566.9543 238.72908 565.6111 237.38593 565.6111 235.72908C565.6111 234.07222 566.9543 232.72908 568.6111 232.72908C570.26794 232.72908 571.6111 234.07222 571.6111 235.72908Z" fill-rule="nonzero"/><path fill="#000000" fill-opacity="0.0" clip-path="url(#id_0)" d="M634.05554 235.72908C634.05554 237.38593 632.7124 238.72908 631.05554 238.72908C629.3987 238.72908 628.05554 237.38593 628.05554 235.72908C628.05554 234.07222 629.3987 232.72908 631.05554 232.72908C632.7124 232.72908 634.05554 234.07222 634.05554 235.72908Z" fill-rule="nonzero"/><path fill="#000000" fill-opacity="0.0" clip-path="url(#id_0)" d="M696.5 235.72908C696.5 237.38593 695.15686 238.72908 693.5 238.72908C691.84314 238.72908 690.5 237.38593 690.5 235.72908C690.5 234.07222 691.84314 232.72908 693.5 232.72908C695.15686 232.72908 696.5 234.07222 696.5 235.72908Z" fill-rule="nonzero"/><path fill="#000000" fill-opacity="0.0" clip-path="url(#id_0)" d="M134.5 240.7366C134.5 242.39345 133.15686 243.7366 131.5 243.7366C129.84314 243.7366 128.5 242.39345 128.5 240.7366C128.5 239.07974 129.84314 237.7366 131.5 237.7366C133.15686 237.7366 134.5 239.07974 134.5 240.7366Z" fill-rule="nonzero"/><path fill="#000000" fill-opacity="0.0" clip-path="url(#id_0)" d="M196.94444 240.7366C196.94444 242.39345 195.6013 243.7366 193.94444 243.7366C192.2876 243.7366 190.94444 242.39345 190.94444 240.7366C190.94444 239.07974 192.2876 237.7366 193.94444 237.7366C195.6013 237.7366 196.94444 239.07974 196.94444 240.7366Z" fill-rule="nonzero"/><path fill="#000000" fill-opacity="0.0" clip-path="url(#id_0)" d="M259.3889 240.7366C259.3889 242.39345 258.04575 243.7366 256.3889 243.7366C254.73204 243.7366 253.38889 242.39345 253.38889 240.7366C253.38889 239.07974 254.73204 237.7366 256.3889 237.7366C258.04575 237.7366 259.3889 239.07974 259.3889 240.7366Z" fill-rule="nonzero"/><path fill="#000000" fill-opacity="0.0" clip-path="url(#id_0)" d="M321.83334 240.7366C321.83334 242.39345 320.49017 243.7366 318.83334 243.7366C317.17648 243.7366 315.83334 242.39345 315.83334 240.7366C315.83334 239.07974 317.17648 237.7366 318.83334 237.7366C320.49017 237.7366 321.83334 239.07974 321.83334 240.7366Z" fill-rule="nonzero"/><path fill="#000000" fill-opacity="0.0" clip-path="url(#id_0)" d="M384.27777 240.7366C384.27777 242.39345 382.93463 243.7366 381.27777 243.7366C379.6209 243.7366 378.27777 242.39345 378.27777 240.7366C378.27777 239.07974 379.6209 237.7366 381.27777 237.7366C382.93463 237.7366 384.27777 239.07974 384.27777 240.7366Z" fill-rule="nonzero"/><path fill="#000000" fill-opacity="0.0" clip-path="url(#id_0)" d="M446.72223 240.7366C446.72223 242.39345 445.3791 243.7366 443.72223 243.7366C442.06537 243.7366 440.72223 242.39345 440.72223 240.7366C440.72223 239.07974 442.06537 237.7366 443.72223 237.7366C445.3791 237.7366 446.72223 239.07974 446.72223 240.7366Z" fill-rule="nonzero"/><path fill="#000000" fill-opacity="0.0" clip-path="url(#id_0)" d="M509.16666 240.7366C509.16666 242.39345 507.82352 243.7366 506.16666 243.7366C504.50983 243.7366 503.16666 242.39345 503.16666 240.7366C503.16666 239.07974 504.50983 237.7366 506.16666 237.7366C507.82352 237.7366 509.16666 239.07974 509.16666 240.7366Z" fill-rule="nonzero"/><path fill="#000000" fill-opacity="0.0" clip-path="url(#id_0)" d="M571.6111 240.7366C571.6111 242.39345 570.26794 243.7366 568.6111 243.7366C566.9543 243.7366 565.6111 242.39345 565.6111 240.7366C565.6111 239.07974 566.9543 237.7366 568.6111 237.7366C570.26794 237.7366 571.6111 239.07974 571.6111 240.7366Z" fill-rule="nonzero"/><path fill="#000000" fill-opacity="0.0" clip-path="url(#id_0)" d="M634.05554 240.7366C634.05554 242.39345 632.7124 243.7366 631.05554 243.7366C629.3987 243.7366 628.05554 242.39345 628.05554 240.7366C628.05554 239.07974 629.3987 237.7366 631.05554 237.7366C632.7124 237.7366 634.05554 239.07974 634.05554 240.7366Z" fill-rule="nonzero"/><path fill="#000000" fill-opacity="0.0" clip-path="url(#id_0)" d="M696.5 240.7366C696.5 242.39345 695.15686 243.7366 693.5 243.7366C691.84314 243.7366 690.5 242.39345 690.5 240.7366C690.5 239.07974 691.84314 237.7366 693.5 237.7366C695.15686 237.7366 696.5 239.07974 696.5 240.7366Z" fill-rule="nonzero"/><path fill="#000000" fill-opacity="0.0" clip-path="url(#id_0)" d="M134.5 199.25336C134.5 200.9102 133.15686 202.25336 131.5 202.25336C129.84314 202.25336 128.5 200.9102 128.5 199.25336C128.5 197.5965 129.84314 196.25336 131.5 196.25336C133.15686 196.25336 134.5 197.5965 134.5 199.25336Z" fill-rule="nonzero"/><path fill="#000000" fill-opacity="0.0" clip-path="url(#id_0)" d="M196.94444 199.25336C196.94444 200.9102 195.6013 202.25336 193.94444 202.25336C192.2876 202.25336 190.94444 200.9102 190.94444 199.25336C190.94444 197.5965 192.2876 196.25336 193.94444 196.25336C195.6013 196.25336 196.94444 197.5965 196.94444 199.25336Z" fill-rule="nonzero"/><path fill="#000000" fill-opacity="0.0" clip-path="url(#id_0)" d="M259.3889 199.25336C259.3889 200.9102 258.04575 202.25336 256.3889 202.25336C254.73204 202.25336 253.38889 200.9102 253.38889 199.25336C253.38889 197.5965 254.73204 196.25336 256.3889 196.25336C258.04575 196.25336 259.3889 197.5965 259.3889 199.25336Z" fill-rule="nonzero"/><path fill="#000000" fill-opacity="0.0" clip-path="url(#id_0)" d="M321.83334 199.25336C321.83334 200.9102 320.49017 202.25336 318.83334 202.25336C317.17648 202.25336 315.83334 200.9102 315.83334 199.25336C315.83334 197.5965 317.17648 196.25336 318.83334 196.25336C320.49017 196.25336 321.83334 197.5965 321.83334 199.25336Z" fill-rule="nonzero"/><path fill="#000000" fill-opacity="0.0" clip-path="url(#id_0)" d="M384.27777 199.25336C384.27777 200.9102 382.93463 202.25336 381.27777 202.25336C379.6209 202.25336 378.27777 200.9102 378.27777 199.25336C378.27777 197.5965 379.6209 196.25336 381.27777 196.25336C382.93463 196.25336 384.27777 197.5965 384.27777 199.25336Z" fill-rule="nonzero"/><path fill="#000000" fill-opacity="0.0" clip-path="url(#id_0)" d="M446.72223 199.25336C446.72223 200.9102 445.3791 202.25336 443.72223 202.25336C442.06537 202.25336 440.72223 200.9102 440.72223 199.25336C440.72223 197.5965 442.06537 196.25336 443.72223 196.25336C445.3791 196.25336 446.72223 197.5965 446.72223 199.25336Z" fill-rule="nonzero"/><path fill="#000000" fill-opacity="0.0" clip-path="url(#id_0)" d="M509.16666 199.25336C509.16666 200.9102 507.82352 202.25336 506.16666 202.25336C504.50983 202.25336 503.16666 200.9102 503.16666 199.25336C503.16666 197.5965 504.50983 196.25336 506.16666 196.25336C507.82352 196.25336 509.16666 197.5965 509.16666 199.25336Z" fill-rule="nonzero"/><path fill="#000000" fill-opacity="0.0" clip-path="url(#id_0)" d="M571.6111 199.25336C571.6111 200.9102 570.26794 202.25336 568.6111 202.25336C566.9543 202.25336 565.6111 200.9102 565.6111 199.25336C565.6111 197.5965 566.9543 196.25336 568.6111 196.25336C570.26794 196.25336 571.6111 197.5965 571.6111 199.25336Z" fill-rule="nonzero"/><path fill="#000000" fill-opacity="0.0" clip-path="url(#id_0)" d="M634.05554 199.25336C634.05554 200.9102 632.7124 202.25336 631.05554 202.25336C629.3987 202.25336 628.05554 200.9102 628.05554 199.25336C628.05554 197.5965 629.3987 196.25336 631.05554 196.25336C632.7124 196.25336 634.05554 197.5965 634.05554 199.25336Z" fill-rule="nonzero"/><path fill="#000000" fill-opacity="0.0" clip-path="url(#id_0)" d="M696.5 199.25336C696.5 200.9102 695.15686 202.25336 693.5 202.25336C691.84314 202.25336 690.5 200.9102 690.5 199.25336C690.5 197.5965 691.84314 196.25336 693.5 196.25336C695.15686 196.25336 696.5 197.5965 696.5 199.25336Z" fill-rule="nonzero"/><path fill="#424242" d="M393.8125 415.68124Q393.8125 416.25937 393.60938 416.82187Q393.40625 417.38437 393.03125 417.75937Q392.5 418.275 391.85938 418.54062Q391.21875 418.80624 390.26562 418.80624L388.85938 418.80624L388.85938 421.65L386.60938 421.65L386.60938 412.93124L390.3125 412.93124Q391.15625 412.93124 391.71875 413.07187Q392.29688 413.2125 392.73438 413.49374Q393.26562 413.8375 393.53125 414.38437Q393.8125 414.91562 393.8125 415.68124ZM391.48438 415.72812Q391.48438 415.36874 391.28125 415.10312Q391.09375 414.82187 390.82812 414.72812Q390.46875 414.5875 390.14062 414.57187Q389.8125 414.55624 389.25 414.55624L388.85938 414.55624L388.85938 417.16562L389.51562 417.16562Q390.07812 417.16562 390.45312 417.10312Q390.82812 417.025 391.07812 416.82187Q391.29688 416.63437 391.39062 416.36874Q391.48438 416.10312 391.48438 415.72812ZM402.21875 418.36874Q402.21875 419.97812 401.26562 420.91562Q400.32812 421.85312 398.625 421.85312Q396.90625 421.85312 395.95312 420.91562Q395.01562 419.97812 395.01562 418.36874Q395.01562 416.72812 395.96875 415.80624Q396.92188 414.86874 398.625 414.86874Q400.34375 414.86874 401.28125 415.80624Q402.21875 416.74374 402.21875 418.36874ZM399.625 419.9625Q399.82812 419.7125 399.92188 419.35312Q400.03125 418.99374 400.03125 418.36874Q400.03125 417.79062 399.92188 417.4Q399.82812 417.00937 399.64062 416.775Q399.45312 416.54062 399.1875 416.44687Q398.92188 416.3375 398.625 416.3375Q398.3125 416.3375 398.07812 416.41562Q397.84375 416.49374 397.625 416.74374Q397.4375 416.97812 397.3125 417.38437Q397.20312 417.775 397.20312 418.36874Q397.20312 418.91562 397.29688 419.30624Q397.40625 419.69687 397.59375 419.94687Q397.78125 420.16562 398.03125 420.275Q398.29688 420.38437 398.64062 420.38437Q398.92188 420.38437 399.1875 420.29062Q399.45312 420.19687 399.625 419.9625ZM405.60938 421.65L403.5 421.65L403.5 415.07187L405.60938 415.07187L405.60938 421.65ZM405.67188 414.13437L403.4375 414.13437L403.4375 412.525L405.67188 412.525L405.67188 414.13437ZM414.10938 421.65L411.98438 421.65L411.98438 418.38437Q411.98438 417.99374 411.9375 417.60312Q411.90625 417.19687 411.79688 417.00937Q411.6875 416.79062 411.45312 416.69687Q411.23438 416.5875 410.82812 416.5875Q410.54688 416.5875 410.25 416.68124Q409.95312 416.775 409.60938 416.97812L409.60938 421.65L407.5 421.65L407.5 415.07187L409.60938 415.07187L409.60938 415.79062Q410.17188 415.35312 410.6875 415.11874Q411.20312 414.88437 411.84375 414.88437Q412.90625 414.88437 413.5 415.50937Q414.10938 416.13437 414.10938 417.36874L414.10938 421.65ZM419.70312 421.5875Q419.35938 421.68124 418.98438 421.72812Q418.60938 421.775 418.04688 421.775Q416.82812 421.775 416.21875 421.275Q415.625 420.775 415.625 419.57187L415.625 416.49374L414.75 416.49374L414.75 415.07187L415.625 415.07187L415.625 413.18124L417.73438 413.18124L417.73438 415.07187L419.70312 415.07187L419.70312 416.49374L417.73438 416.49374L417.73438 418.8375Q417.73438 419.18124 417.73438 419.44687Q417.73438 419.69687 417.82812 419.9Q417.90625 420.10312 418.10938 420.22812Q418.32812 420.3375 418.71875 420.3375Q418.89062 420.3375 419.15625 420.275Q419.42188 420.19687 419.53125 420.15L419.70312 420.15L419.70312 421.5875ZM429.32812 421.65L424.21875 421.65L424.21875 420.10312L425.65625 420.10312L425.65625 414.47812L424.21875 414.47812L424.21875 412.93124L429.32812 412.93124L429.32812 414.47812L427.90625 414.47812L427.90625 420.10312L429.32812 420.10312L429.32812 421.65ZM438.85938 417.29062Q438.85938 418.50937 438.29688 419.47812Q437.75 420.44687 436.89062 420.9625Q436.25 421.3375 435.48438 421.49374Q434.73438 421.65 433.6875 421.65L430.60938 421.65L430.60938 412.93124L433.78125 412.93124Q434.84375 412.93124 435.60938 413.10312Q436.39062 413.275 436.92188 413.60312Q437.82812 414.16562 438.34375 415.10312Q438.85938 416.025 438.85938 417.29062ZM436.53125 417.275Q436.53125 416.41562 436.21875 415.80624Q435.90625 415.19687 435.21875 414.85312Q434.875 414.68124 434.51562 414.61874Q434.15625 414.55624 433.4375 414.55624L432.85938 414.55624L432.85938 420.00937L433.4375 420.00937Q434.23438 420.00937 434.60938 419.94687Q434.98438 419.86874 435.34375 419.68124Q435.95312 419.32187 436.23438 418.74374Q436.53125 418.15 436.53125 417.275Z" fill-rule="nonzero"/><path fill="#424242" d="M35.52187 311.8375Q35.52187 312.82187 35.24062 313.65Q34.943745 314.4625 34.381245 315.05624Q33.80312 315.65 32.95937 315.97812Q32.11562 316.29062 30.99062 316.29062Q29.95937 316.29062 29.11562 315.99374Q28.27187 315.68124 27.662495 315.0875Q27.08437 314.50937 26.77187 313.68124Q26.45937 312.8375 26.45937 311.8375Q26.45937 311.29062 26.52187 310.85312Q26.58437 310.4 26.67812 310.025Q26.787495 309.63437 26.92812 309.32187Q27.068745 308.99374 27.17812 308.75937L29.30312 308.75937L29.30312 309.00937Q29.162495 309.18124 28.974995 309.43124Q28.77187 309.68124 28.58437 309.99374Q28.39687 310.30624 28.27187 310.68124Q28.131245 311.05624 28.131245 311.49374Q28.131245 311.9625 28.287495 312.4Q28.42812 312.82187 28.787495 313.18124Q29.11562 313.525 29.662495 313.74374Q30.20937 313.9625 31.006245 313.9625Q31.818745 313.9625 32.381245 313.72812Q32.92812 313.49374 33.24062 313.15Q33.568745 312.79062 33.70937 312.35312Q33.83437 311.9 33.83437 311.47812Q33.83437 311.07187 33.70937 310.66562Q33.58437 310.25937 33.381245 309.93124Q33.20937 309.63437 33.02187 309.4Q32.818745 309.15 32.67812 308.99374L32.67812 308.75937L34.77187 308.75937Q34.912495 309.0875 35.05312 309.38437Q35.17812 309.68124 35.27187 310.00937Q35.39687 310.43124 35.45937 310.80624Q35.52187 311.18124 35.52187 311.8375ZM32.068745 300.18124Q33.67812 300.18124 34.61562 301.13437Q35.55312 302.07187 35.55312 303.775Q35.55312 305.49374 34.61562 306.44687Q33.67812 307.38437 32.068745 307.38437Q30.42812 307.38437 29.506245 306.43124Q28.568745 305.47812 28.568745 303.775Q28.568745 302.05624 29.506245 301.11874Q30.443745 300.18124 32.068745 300.18124ZM33.662495 302.775Q33.412495 302.57187 33.05312 302.47812Q32.693745 302.36874 32.068745 302.36874Q31.49062 302.36874 31.099995 302.47812Q30.70937 302.57187 30.474995 302.75937Q30.24062 302.94687 30.14687 303.2125Q30.037495 303.47812 30.037495 303.775Q30.037495 304.0875 30.11562 304.32187Q30.193745 304.55624 30.443745 304.775Q30.67812 304.9625 31.08437 305.0875Q31.474995 305.19687 32.068745 305.19687Q32.61562 305.19687 33.006245 305.10312Q33.39687 304.99374 33.64687 304.80624Q33.86562 304.61874 33.974995 304.36874Q34.08437 304.10312 34.08437 303.75937Q34.08437 303.47812 33.99062 303.2125Q33.89687 302.94687 33.662495 302.775ZM30.67812 292.4625L35.349995 292.4625L35.349995 294.5875L32.068745 294.5875Q31.58437 294.5875 31.256245 294.61874Q30.912495 294.63437 30.693745 294.74374Q30.49062 294.85312 30.39687 295.07187Q30.287495 295.275 30.287495 295.66562Q30.287495 295.97812 30.412495 296.275Q30.537495 296.55624 30.67812 296.79062L35.349995 296.79062L35.349995 298.9L28.77187 298.9L28.77187 296.79062L29.49062 296.79062Q29.068745 296.24374 28.83437 295.75937Q28.58437 295.25937 28.58437 294.65Q28.58437 293.99374 28.881245 293.50937Q29.162495 293.00937 29.724995 292.72812Q29.193745 292.0875 28.89687 291.49374Q28.58437 290.9 28.58437 290.32187Q28.58437 289.25937 29.224995 288.7125Q29.86562 288.15 31.068745 288.15L35.349995 288.15L35.349995 290.25937L32.068745 290.25937Q31.568745 290.25937 31.24062 290.29062Q30.912495 290.30624 30.693745 290.41562Q30.49062 290.50937 30.39687 290.72812Q30.287495 290.94687 30.287495 291.3375Q30.287495 291.60312 30.381245 291.85312Q30.474995 292.10312 30.67812 292.4625ZM31.974995 280.04062Q32.787495 280.04062 33.45937 280.29062Q34.11562 280.54062 34.55312 280.93124Q35.006245 281.35312 35.24062 281.9Q35.474995 282.43124 35.474995 283.04062Q35.474995 283.60312 35.349995 283.99374Q35.24062 284.38437 35.02187 284.79062L37.77187 284.79062L37.77187 286.9L28.77187 286.9L28.77187 284.79062L29.45937 284.79062Q29.068745 284.30624 28.83437 283.80624Q28.58437 283.29062 28.58437 282.63437Q28.58437 281.4 29.49062 280.72812Q30.39687 280.04062 31.974995 280.04062ZM32.006245 282.2125Q31.05312 282.2125 30.61562 282.54062Q30.17812 282.86874 30.17812 283.57187Q30.17812 283.86874 30.27187 284.19687Q30.36562 284.50937 30.537495 284.79062L33.849995 284.79062Q33.92812 284.5875 33.95937 284.35312Q33.974995 284.10312 33.974995 283.86874Q33.974995 283.025 33.49062 282.61874Q32.99062 282.2125 32.006245 282.2125ZM35.349995 272.35312L35.349995 274.4625L34.61562 274.4625Q35.068745 275.04062 35.30312 275.525Q35.537495 276.00937 35.537495 276.68124Q35.537495 277.775 34.912495 278.36874Q34.27187 278.9625 33.05312 278.9625L28.77187 278.9625L28.77187 276.8375L32.037495 276.8375Q32.537495 276.8375 32.86562 276.80624Q33.193745 276.775 33.412495 276.65Q33.631245 276.54062 33.724995 276.32187Q33.818745 276.0875 33.818745 275.68124Q33.818745 275.41562 33.724995 275.0875Q33.631245 274.75937 33.42812 274.4625L28.77187 274.4625L28.77187 272.35312L35.349995 272.35312ZM35.287495 266.69687Q35.381245 267.04062 35.42812 267.41562Q35.474995 267.79062 35.474995 268.35312Q35.474995 269.57187 34.974995 270.18124Q34.474995 270.775 33.27187 270.775L30.193745 270.775L30.193745 271.65L28.77187 271.65L28.77187 270.775L26.881245 270.775L26.881245 268.66562L28.77187 268.66562L28.77187 266.69687L30.193745 266.69687L30.193745 268.66562L32.537495 268.66562Q32.881245 268.66562 33.14687 268.66562Q33.39687 268.66562 33.599995 268.57187Q33.80312 268.49374 33.92812 268.29062Q34.037495 268.07187 34.037495 267.68124Q34.037495 267.50937 33.974995 267.24374Q33.89687 266.97812 33.849995 266.86874L33.849995 266.69687L35.287495 266.69687ZM33.631245 261.91562L32.256245 261.91562Q32.30312 262.35312 32.36562 262.85312Q32.412495 263.3375 32.506245 263.60312Q32.599995 263.91562 32.787495 264.0875Q32.974995 264.24374 33.287495 264.24374Q33.49062 264.24374 33.631245 264.2125Q33.756245 264.18124 33.86562 264.04062Q33.99062 263.9 34.05312 263.7125Q34.099995 263.525 34.099995 263.13437Q34.099995 262.82187 33.974995 262.49374Q33.849995 262.16562 33.631245 261.91562ZM34.64687 261.91562Q34.787495 262.0875 34.974995 262.3375Q35.14687 262.5875 35.256245 262.82187Q35.39687 263.11874 35.45937 263.4625Q35.52187 263.79062 35.52187 264.19687Q35.52187 265.13437 34.943745 265.775Q34.36562 266.4 33.45937 266.4Q32.74062 266.4 32.287495 266.07187Q31.83437 265.74374 31.568745 265.16562Q31.30312 264.57187 31.193745 263.7125Q31.08437 262.8375 31.02187 261.9L30.99062 261.9Q30.443745 261.9 30.24062 262.35312Q30.02187 262.79062 30.02187 263.66562Q30.02187 264.18124 30.20937 264.775Q30.39687 265.36874 30.49062 265.63437L30.49062 265.82187L28.912495 265.82187Q28.818745 265.49374 28.70937 264.74374Q28.58437 263.97812 28.58437 263.22812Q28.58437 261.43124 29.14687 260.63437Q29.693745 259.82187 30.86562 259.82187L35.349995 259.82187L35.349995 261.91562L34.64687 261.91562ZM35.287495 253.69687Q35.381245 254.04062 35.42812 254.41562Q35.474995 254.79062 35.474995 255.35312Q35.474995 256.57187 34.974995 257.18124Q34.474995 257.775 33.27187 257.775L30.193745 257.775L30.193745 258.65L28.77187 258.65L28.77187 257.775L26.881245 257.775L26.881245 255.66562L28.77187 255.66562L28.77187 253.69687L30.193745 253.69687L30.193745 255.66562L32.537495 255.66562Q32.881245 255.66562 33.14687 255.66562Q33.39687 255.66562 33.599995 255.57187Q33.80312 255.49374 33.92812 255.29062Q34.037495 255.07187 34.037495 254.68124Q34.037495 254.50937 33.974995 254.24374Q33.89687 253.97812 33.849995 253.86874L33.849995 253.69687L35.287495 253.69687ZM35.349995 250.79062L35.349995 252.9L28.77187 252.9L28.77187 250.79062L35.349995 250.79062ZM27.83437 250.72812L27.83437 252.9625L26.224995 252.9625L26.224995 250.72812L27.83437 250.72812ZM32.068745 242.18124Q33.67812 242.18124 34.61562 243.13437Q35.55312 244.07187 35.55312 245.775Q35.55312 247.49374 34.61562 248.44687Q33.67812 249.38437 32.068745 249.38437Q30.42812 249.38437 29.506245 248.43124Q28.568745 247.47812 28.568745 245.775Q28.568745 244.05624 29.506245 243.11874Q30.443745 242.18124 32.068745 242.18124ZM33.662495 244.775Q33.412495 244.57187 33.05312 244.47812Q32.693745 244.36874 32.068745 244.36874Q31.49062 244.36874 31.099995 244.47812Q30.70937 244.57187 30.474995 244.75937Q30.24062 244.94687 30.14687 245.2125Q30.037495 245.47812 30.037495 245.775Q30.037495 246.0875 30.11562 246.32187Q30.193745 246.55624 30.443745 246.775Q30.67812 246.9625 31.08437 247.0875Q31.474995 247.19687 32.068745 247.19687Q32.61562 247.19687 33.006245 247.10312Q33.39687 246.99374 33.64687 246.80624Q33.86562 246.61874 33.974995 246.36874Q34.08437 246.10312 34.08437 245.75937Q34.08437 245.47812 33.99062 245.2125Q33.89687 244.94687 33.662495 244.775ZM35.349995 234.29062L35.349995 236.41562L32.08437 236.41562Q31.693745 236.41562 31.30312 236.4625Q30.89687 236.49374 30.70937 236.60312Q30.49062 236.7125 30.39687 236.94687Q30.287495 237.16562 30.287495 237.57187Q30.287495 237.85312 30.381245 238.15Q30.474995 238.44687 30.67812 238.79062L35.349995 238.79062L35.349995 240.9L28.77187 240.9L28.77187 238.79062L29.49062 238.79062Q29.05312 238.22812 28.818745 237.7125Q28.58437 237.19687 28.58437 236.55624Q28.58437 235.49374 29.20937 234.9Q29.83437 234.29062 31.068745 234.29062L35.349995 234.29062ZM33.631245 228.91562L32.256245 228.91562Q32.30312 229.35312 32.36562 229.85312Q32.412495 230.3375 32.506245 230.60312Q32.599995 230.91562 32.787495 231.0875Q32.974995 231.24374 33.287495 231.24374Q33.49062 231.24374 33.631245 231.2125Q33.756245 231.18124 33.86562 231.04062Q33.99062 230.9 34.05312 230.7125Q34.099995 230.525 34.099995 230.13437Q34.099995 229.82187 33.974995 229.49374Q33.849995 229.16562 33.631245 228.91562ZM34.64687 228.91562Q34.787495 229.0875 34.974995 229.3375Q35.14687 229.5875 35.256245 229.82187Q35.39687 230.11874 35.45937 230.4625Q35.52187 230.79062 35.52187 231.19687Q35.52187 232.13437 34.943745 232.775Q34.36562 233.4 33.45937 233.4Q32.74062 233.4 32.287495 233.07187Q31.83437 232.74374 31.568745 232.16562Q31.30312 231.57187 31.193745 230.7125Q31.08437 229.8375 31.02187 228.9L30.99062 228.9Q30.443745 228.9 30.24062 229.35312Q30.02187 229.79062 30.02187 230.66562Q30.02187 231.18124 30.20937 231.775Q30.39687 232.36874 30.49062 232.63437L30.49062 232.82187L28.912495 232.82187Q28.818745 232.49374 28.70937 231.74374Q28.58437 230.97812 28.58437 230.22812Q28.58437 228.43124 29.14687 227.63437Q29.693745 226.82187 30.86562 226.82187L35.349995 226.82187L35.349995 228.91562L34.64687 228.91562ZM35.349995 222.79062L35.349995 224.9L26.224995 224.9L26.224995 222.79062L35.349995 222.79062ZM35.287495 212.69687Q35.381245 213.04062 35.42812 213.41562Q35.474995 213.79062 35.474995 214.35312Q35.474995 215.57187 34.974995 216.18124Q34.474995 216.775 33.27187 216.775L30.193745 216.775L30.193745 217.65L28.77187 217.65L28.77187 216.775L26.881245 216.775L26.881245 214.66562L28.77187 214.66562L28.77187 212.69687L30.193745 212.69687L30.193745 214.66562L32.537495 214.66562Q32.881245 214.66562 33.14687 214.66562Q33.39687 214.66562 33.599995 214.57187Q33.80312 214.49374 33.92812 214.29062Q34.037495 214.07187 34.037495 213.68124Q34.037495 213.50937 33.974995 213.24374Q33.89687 212.97812 33.849995 212.86874L33.849995 212.69687L35.287495 212.69687ZM35.349995 209.79062L35.349995 211.9L28.77187 211.9L28.77187 209.79062L35.349995 209.79062ZM27.83437 209.72812L27.83437 211.9625L26.224995 211.9625L26.224995 209.72812L27.83437 209.72812ZM30.67812 201.4625L35.349995 201.4625L35.349995 203.5875L32.068745 203.5875Q31.58437 203.5875 31.256245 203.61874Q30.912495 203.63437 30.693745 203.74374Q30.49062 203.85312 30.39687 204.07187Q30.287495 204.275 30.287495 204.66562Q30.287495 204.97812 30.412495 205.275Q30.537495 205.55624 30.67812 205.79062L35.349995 205.79062L35.349995 207.9L28.77187 207.9L28.77187 205.79062L29.49062 205.79062Q29.068745 205.24374 28.83437 204.75937Q28.58437 204.25937 28.58437 203.65Q28.58437 202.99374 28.881245 202.50937Q29.162495 202.00937 29.724995 201.72812Q29.193745 201.0875 28.89687 200.49374Q28.58437 199.9 28.58437 199.32187Q28.58437 198.25937 29.224995 197.7125Q29.86562 197.15 31.068745 197.15L35.349995 197.15L35.349995 199.25937L32.068745 199.25937Q31.568745 199.25937 31.24062 199.29062Q30.912495 199.30624 30.693745 199.41562Q30.49062 199.50937 30.39687 199.72812Q30.287495 199.94687 30.287495 200.3375Q30.287495 200.60312 30.381245 200.85312Q30.474995 201.10312 30.67812 201.4625ZM32.443745 189.41562L32.443745 194.24374Q33.224995 194.19687 33.631245 193.66562Q34.037495 193.11874 34.037495 192.07187Q34.037495 191.4 33.80312 190.775Q33.568745 190.15 33.287495 189.775L33.287495 189.54062L34.974995 189.54062Q35.27187 190.25937 35.39687 190.9Q35.52187 191.525 35.52187 192.29062Q35.52187 194.275 34.631245 195.3375Q33.74062 196.38437 32.099995 196.38437Q30.474995 196.38437 29.52187 195.38437Q28.568745 194.38437 28.568745 192.65Q28.568745 191.04062 29.381245 190.22812Q30.193745 189.41562 31.70937 189.41562L32.443745 189.41562ZM31.20937 191.525Q30.55312 191.54062 30.224995 191.85312Q29.881245 192.16562 29.881245 192.82187Q29.881245 193.43124 30.20937 193.82187Q30.52187 194.2125 31.20937 194.25937L31.20937 191.525ZM37.64687 179.525L37.64687 183.44687L26.224995 183.44687L26.224995 179.525L27.631245 179.525L27.631245 181.61874L36.24062 181.61874L36.24062 179.525L37.64687 179.525ZM33.256245 172.18124Q34.287495 172.18124 34.912495 173.10312Q35.537495 174.00937 35.537495 175.60312Q35.537495 176.47812 35.36562 177.19687Q35.20937 177.91562 35.006245 178.3375L33.27187 178.3375L33.27187 178.15Q33.381245 177.99374 33.52187 177.79062Q33.64687 177.57187 33.80312 177.19687Q33.92812 176.86874 34.037495 176.4625Q34.131245 176.04062 34.131245 175.55624Q34.131245 174.93124 33.99062 174.63437Q33.849995 174.3375 33.58437 174.3375Q33.33437 174.3375 33.224995 174.525Q33.11562 174.69687 33.02187 175.18124Q32.974995 175.41562 32.912495 175.82187Q32.849995 176.22812 32.756245 176.55624Q32.52187 177.44687 32.037495 177.88437Q31.537495 178.30624 30.80312 178.30624Q29.849995 178.30624 29.224995 177.41562Q28.58437 176.50937 28.58437 174.9625Q28.58437 174.2125 28.74062 173.54062Q28.881245 172.86874 29.05312 172.47812L30.724995 172.47812L30.724995 172.66562Q30.39687 173.13437 30.193745 173.74374Q29.99062 174.3375 29.99062 174.94687Q29.99062 175.4625 30.131245 175.80624Q30.27187 176.15 30.537495 176.15Q30.77187 176.15 30.89687 175.99374Q31.006245 175.8375 31.131245 175.25937Q31.193745 174.93124 31.256245 174.55624Q31.318745 174.18124 31.412495 173.80624Q31.631245 172.97812 32.099995 172.5875Q32.568745 172.18124 33.256245 172.18124ZM37.64687 166.82187L37.64687 170.74374L36.24062 170.74374L36.24062 168.66562L27.631245 168.66562L27.631245 170.74374L26.224995 170.74374L26.224995 166.82187L37.64687 166.82187Z" fill-rule="nonzero"/><path fill="#757575" d="M82.225 369.29062Q82.225 370.38437 82.02187 371.25937Q81.83437 372.11874 81.4125 372.68124Q80.975 373.24374 80.2875 373.54062Q79.61562 373.8375 78.61562 373.8375Q77.63125 373.8375 76.94375 373.54062Q76.25625 373.24374 75.83437 372.66562Q75.39687 372.10312 75.19375 371.24374Q75.00625 370.38437 75.00625 369.29062Q75.00625 368.15 75.20937 367.32187Q75.4125 366.47812 75.83437 365.9Q76.27187 365.32187 76.95937 365.04062Q77.6625 364.74374 78.61562 364.74374Q79.61562 364.74374 80.2875 365.04062Q80.975 365.3375 81.4125 365.93124Q81.83437 366.49374 82.02187 367.3375Q82.225 368.18124 82.225 369.29062ZM79.95937 369.29062Q79.95937 367.69687 79.64687 367.025Q79.33437 366.35312 78.61562 366.35312Q77.89687 366.35312 77.58437 367.025Q77.27187 367.69687 77.27187 369.29062Q77.27187 370.85312 77.58437 371.54062Q77.9125 372.2125 78.61562 372.2125Q79.31875 372.2125 79.63125 371.54062Q79.95937 370.85312 79.95937 369.29062Z" fill-rule="nonzero"/><path fill="#757575" d="M63.740623 306.525L57.9125 306.525L57.9125 304.99374L59.75625 304.99374L59.75625 300.38437L57.9125 300.38437L57.9125 298.9625Q58.334373 298.9625 58.709373 298.91562Q59.1 298.86874 59.365623 298.74374Q59.6625 298.60312 59.81875 298.36874Q59.975 298.13437 59.990623 297.775L61.928123 297.775L61.928123 304.99374L63.740623 304.99374L63.740623 306.525ZM73.225 302.16562Q73.225 303.25937 73.02187 304.13437Q72.83437 304.99374 72.4125 305.55624Q71.975 306.11874 71.2875 306.41562Q70.61562 306.7125 69.61562 306.7125Q68.63125 306.7125 67.94375 306.41562Q67.25625 306.11874 66.83437 305.54062Q66.39687 304.97812 66.19375 304.11874Q66.00625 303.25937 66.00625 302.16562Q66.00625 301.025 66.20937 300.19687Q66.4125 299.35312 66.83437 298.775Q67.27187 298.19687 67.95937 297.91562Q68.6625 297.61874 69.61562 297.61874Q70.61562 297.61874 71.2875 297.91562Q71.975 298.2125 72.4125 298.80624Q72.83437 299.36874 73.02187 300.2125Q73.225 301.05624 73.225 302.16562ZM70.95937 302.16562Q70.95937 300.57187 70.64687 299.9Q70.33437 299.22812 69.61562 299.22812Q68.89687 299.22812 68.58437 299.9Q68.27187 300.57187 68.27187 302.16562Q68.27187 303.72812 68.58437 304.41562Q68.9125 305.0875 69.61562 305.0875Q70.31875 305.0875 70.63125 304.41562Q70.95937 303.72812 70.95937 302.16562ZM82.225 302.16562Q82.225 303.25937 82.02187 304.13437Q81.83437 304.99374 81.4125 305.55624Q80.975 306.11874 80.2875 306.41562Q79.61562 306.7125 78.61562 306.7125Q77.63125 306.7125 76.94375 306.41562Q76.25625 306.11874 75.83437 305.54062Q75.39687 304.97812 75.19375 304.11874Q75.00625 303.25937 75.00625 302.16562Q75.00625 301.025 75.20937 300.19687Q75.4125 299.35312 75.83437 298.775Q76.27187 298.19687 76.95937 297.91562Q77.6625 297.61874 78.61562 297.61874Q79.61562 297.61874 80.2875 297.91562Q80.975 298.2125 81.4125 298.80624Q81.83437 299.36874 82.02187 300.2125Q82.225 301.05624 82.225 302.16562ZM79.95937 302.16562Q79.95937 300.57187 79.64687 299.9Q79.33437 299.22812 78.61562 299.22812Q77.89687 299.22812 77.58437 299.9Q77.27187 300.57187 77.27187 302.16562Q77.27187 303.72812 77.58437 304.41562Q77.9125 305.0875 78.61562 305.0875Q79.31875 305.0875 79.63125 304.41562Q79.95937 303.72812 79.95937 302.16562Z" fill-rule="nonzero"/><path fill="#757575" d="M64.2875 239.4L57.428123 239.4L57.428123 237.9625Q58.225 237.38437 59.00625 236.75937Q59.803123 236.11874 60.271873 235.65Q60.975 234.9625 61.271873 234.4625Q61.584373 233.94687 61.584373 233.44687Q61.584373 232.85312 61.19375 232.525Q60.803123 232.19687 60.084373 232.19687Q59.553123 232.19687 58.959373 232.43124Q58.365623 232.65 57.85 232.99374L57.6625 232.99374L57.6625 231.05624Q58.084373 230.86874 58.896873 230.69687Q59.709373 230.50937 60.521873 230.50937Q62.1625 230.50937 63.021873 231.19687Q63.88125 231.88437 63.88125 233.13437Q63.88125 233.9625 63.459373 234.7125Q63.053123 235.4625 62.209373 236.24374Q61.678123 236.74374 61.13125 237.16562Q60.6 237.57187 60.365623 237.72812L64.2875 237.72812L64.2875 239.4ZM73.225 235.04062Q73.225 236.13437 73.02187 237.00937Q72.83437 237.86874 72.4125 238.43124Q71.975 238.99374 71.2875 239.29062Q70.61562 239.5875 69.61562 239.5875Q68.63125 239.5875 67.94375 239.29062Q67.25625 238.99374 66.83437 238.41562Q66.39687 237.85312 66.19375 236.99374Q66.00625 236.13437 66.00625 235.04062Q66.00625 233.9 66.20937 233.07187Q66.4125 232.22812 66.83437 231.65Q67.27187 231.07187 67.95937 230.79062Q68.6625 230.49374 69.61562 230.49374Q70.61562 230.49374 71.2875 230.79062Q71.975 231.0875 72.4125 231.68124Q72.83437 232.24374 73.02187 233.0875Q73.225 233.93124 73.225 235.04062ZM70.95937 235.04062Q70.95937 233.44687 70.64687 232.775Q70.33437 232.10312 69.61562 232.10312Q68.89687 232.10312 68.58437 232.775Q68.27187 233.44687 68.27187 235.04062Q68.27187 236.60312 68.58437 237.29062Q68.9125 237.9625 69.61562 237.9625Q70.31875 237.9625 70.63125 237.29062Q70.95937 236.60312 70.95937 235.04062ZM82.225 235.04062Q82.225 236.13437 82.02187 237.00937Q81.83437 237.86874 81.4125 238.43124Q80.975 238.99374 80.2875 239.29062Q79.61562 239.5875 78.61562 239.5875Q77.63125 239.5875 76.94375 239.29062Q76.25625 238.99374 75.83437 238.41562Q75.39687 237.85312 75.19375 236.99374Q75.00625 236.13437 75.00625 235.04062Q75.00625 233.9 75.20937 233.07187Q75.4125 232.22812 75.83437 231.65Q76.27187 231.07187 76.95937 230.79062Q77.6625 230.49374 78.61562 230.49374Q79.61562 230.49374 80.2875 230.79062Q80.975 231.0875 81.4125 231.68124Q81.83437 232.24374 82.02187 233.0875Q82.225 233.93124 82.225 235.04062ZM79.95937 235.04062Q79.95937 233.44687 79.64687 232.775Q79.33437 232.10312 78.61562 232.10312Q77.89687 232.10312 77.58437 232.775Q77.27187 233.44687 77.27187 235.04062Q77.27187 236.60312 77.58437 237.29062Q77.9125 237.9625 78.61562 237.9625Q79.31875 237.9625 79.63125 237.29062Q79.95937 236.60312 79.95937 235.04062Z" fill-rule="nonzero"/><path fill="#757575" d="M63.428123 168.18124Q63.709373 168.43124 63.88125 168.75937Q64.05312 169.0875 64.05312 169.63437Q64.05312 170.24374 63.803123 170.775Q63.56875 171.30624 63.06875 171.69687Q62.56875 172.05624 61.896873 172.25937Q61.240623 172.4625 60.2875 172.4625Q59.209373 172.4625 58.428123 172.29062Q57.6625 172.11874 57.178123 171.9L57.178123 169.99374L57.396873 169.99374Q57.896873 170.29062 58.6 170.525Q59.303123 170.74374 59.88125 170.74374Q60.225 170.74374 60.615623 170.69687Q61.021873 170.63437 61.303123 170.44687Q61.50625 170.29062 61.63125 170.0875Q61.771873 169.88437 61.771873 169.47812Q61.771873 169.10312 61.584373 168.9Q61.4125 168.68124 61.13125 168.60312Q60.85 168.50937 60.44375 168.50937Q60.0375 168.49374 59.69375 168.49374L59.209373 168.49374L59.209373 166.93124L59.709373 166.93124Q60.1625 166.93124 60.50625 166.9Q60.865623 166.86874 61.115623 166.75937Q61.365623 166.65 61.490623 166.47812Q61.63125 166.29062 61.63125 165.93124Q61.63125 165.66562 61.490623 165.50937Q61.365623 165.3375 61.1625 165.24374Q60.928123 165.15 60.615623 165.11874Q60.303123 165.07187 60.084373 165.07187Q59.5375 165.07187 58.88125 165.25937Q58.240623 165.44687 57.646873 165.80624L57.428123 165.80624L57.428123 163.91562Q57.896873 163.72812 58.725 163.55624Q59.553123 163.36874 60.4125 163.36874Q61.225 163.36874 61.85 163.50937Q62.475 163.65 62.88125 163.9Q63.365623 164.18124 63.6 164.60312Q63.834373 165.00937 63.834373 165.55624Q63.834373 166.275 63.38125 166.85312Q62.928123 167.41562 62.19375 167.5875L62.19375 167.66562Q62.490623 167.69687 62.81875 167.82187Q63.146873 167.94687 63.428123 168.18124ZM73.225 167.91562Q73.225 169.00937 73.02187 169.88437Q72.83437 170.74374 72.4125 171.30624Q71.975 171.86874 71.2875 172.16562Q70.61562 172.4625 69.61562 172.4625Q68.63125 172.4625 67.94375 172.16562Q67.25625 171.86874 66.83437 171.29062Q66.39687 170.72812 66.19375 169.86874Q66.00625 169.00937 66.00625 167.91562Q66.00625 166.775 66.20937 165.94687Q66.4125 165.10312 66.83437 164.525Q67.27187 163.94687 67.95937 163.66562Q68.6625 163.36874 69.61562 163.36874Q70.61562 163.36874 71.2875 163.66562Q71.975 163.9625 72.4125 164.55624Q72.83437 165.11874 73.02187 165.9625Q73.225 166.80624 73.225 167.91562ZM70.95937 167.91562Q70.95937 166.32187 70.64687 165.65Q70.33437 164.97812 69.61562 164.97812Q68.89687 164.97812 68.58437 165.65Q68.27187 166.32187 68.27187 167.91562Q68.27187 169.47812 68.58437 170.16562Q68.9125 170.8375 69.61562 170.8375Q70.31875 170.8375 70.63125 170.16562Q70.95937 169.47812 70.95937 167.91562ZM82.225 167.91562Q82.225 169.00937 82.02187 169.88437Q81.83437 170.74374 81.4125 171.30624Q80.975 171.86874 80.2875 172.16562Q79.61562 172.4625 78.61562 172.4625Q77.63125 172.4625 76.94375 172.16562Q76.25625 171.86874 75.83437 171.29062Q75.39687 170.72812 75.19375 169.86874Q75.00625 169.00937 75.00625 167.91562Q75.00625 166.775 75.20937 165.94687Q75.4125 165.10312 75.83437 164.525Q76.27187 163.94687 76.95937 163.66562Q77.6625 163.36874 78.61562 163.36874Q79.61562 163.36874 80.2875 163.66562Q80.975 163.9625 81.4125 164.55624Q81.83437 165.11874 82.02187 165.9625Q82.225 166.80624 82.225 167.91562ZM79.95937 167.91562Q79.95937 166.32187 79.64687 165.65Q79.33437 164.97812 78.61562 164.97812Q77.89687 164.97812 77.58437 165.65Q77.27187 166.32187 77.27187 167.91562Q77.27187 169.47812 77.58437 170.16562Q77.9125 170.8375 78.61562 170.8375Q79.31875 170.8375 79.63125 170.16562Q79.95937 169.47812 79.95937 167.91562Z" fill-rule="nonzero"/><path fill="#757575" d="M64.4125 103.13438L63.225 103.13438L63.225 105.18125L61.06875 105.18125L61.06875 103.13438L56.85 103.13438L56.85 101.49375L60.928123 96.43125L63.225 96.43125L63.225 101.54063L64.4125 101.54063L64.4125 103.13438ZM61.06875 101.54063L61.06875 98.4L58.5375 101.54063L61.06875 101.54063ZM73.225 100.79063Q73.225 101.88438 73.02187 102.75938Q72.83437 103.61875 72.4125 104.18125Q71.975 104.74375 71.2875 105.04063Q70.61562 105.3375 69.61562 105.3375Q68.63125 105.3375 67.94375 105.04063Q67.25625 104.74375 66.83437 104.16563Q66.39687 103.60313 66.19375 102.74375Q66.00625 101.88438 66.00625 100.79063Q66.00625 99.65 66.20937 98.82188Q66.4125 97.97813 66.83437 97.4Q67.27187 96.82188 67.95937 96.54063Q68.6625 96.24375 69.61562 96.24375Q70.61562 96.24375 71.2875 96.54063Q71.975 96.8375 72.4125 97.43125Q72.83437 97.99375 73.02187 98.8375Q73.225 99.68125 73.225 100.79063ZM70.95937 100.79063Q70.95937 99.19688 70.64687 98.525Q70.33437 97.85313 69.61562 97.85313Q68.89687 97.85313 68.58437 98.525Q68.27187 99.19688 68.27187 100.79063Q68.27187 102.35313 68.58437 103.04063Q68.9125 103.7125 69.61562 103.7125Q70.31875 103.7125 70.63125 103.04063Q70.95937 102.35313 70.95937 100.79063ZM82.225 100.79063Q82.225 101.88438 82.02187 102.75938Q81.83437 103.61875 81.4125 104.18125Q80.975 104.74375 80.2875 105.04063Q79.61562 105.3375 78.61562 105.3375Q77.63125 105.3375 76.94375 105.04063Q76.25625 104.74375 75.83437 104.16563Q75.39687 103.60313 75.19375 102.74375Q75.00625 101.88438 75.00625 100.79063Q75.00625 99.65 75.20937 98.82188Q75.4125 97.97813 75.83437 97.4Q76.27187 96.82188 76.95937 96.54063Q77.6625 96.24375 78.61562 96.24375Q79.61562 96.24375 80.2875 96.54063Q80.975 96.8375 81.4125 97.43125Q81.83437 97.99375 82.02187 98.8375Q82.225 99.68125 82.225 100.79063ZM79.95937 100.79063Q79.95937 99.19688 79.64687 98.525Q79.33437 97.85313 78.61562 97.85313Q77.89687 97.85313 77.58437 98.525Q77.27187 99.19688 77.27187 100.79063Q77.27187 102.35313 77.58437 103.04063Q77.9125 103.7125 78.61562 103.7125Q79.31875 103.7125 79.63125 103.04063Q79.95937 102.35313 79.95937 100.79063Z" fill-rule="nonzero"/><path fill="#757575" d="M134.39062 387.65L128.5625 387.65L128.5625 386.11874L130.40625 386.11874L130.40625 381.50937L128.5625 381.50937L128.5625 380.0875Q128.98438 380.0875 129.35938 380.04062Q129.75 379.99374 130.01562 379.86874Q130.3125 379.72812 130.46875 379.49374Q130.625 379.25937 130.64062 378.9L132.57812 378.9L132.57812 386.11874L134.39062 386.11874L134.39062 387.65Z" fill-rule="nonzero"/><path fill="#757575" d="M197.38194 387.65L190.52257 387.65L190.52257 386.2125Q191.31944 385.63437 192.1007 385.00937Q192.89757 384.36874 193.36632 383.9Q194.06944 383.2125 194.36632 382.7125Q194.67882 382.19687 194.67882 381.69687Q194.67882 381.10312 194.2882 380.775Q193.89757 380.44687 193.17882 380.44687Q192.64757 380.44687 192.05382 380.68124Q191.46007 380.9 190.94444 381.24374L190.75694 381.24374L190.75694 379.30624Q191.17882 379.11874 191.99132 378.94687Q192.80382 378.75937 193.61632 378.75937Q195.25694 378.75937 196.11632 379.44687Q196.9757 380.13437 196.9757 381.38437Q196.9757 382.2125 196.55382 382.9625Q196.14757 383.7125 195.30382 384.49374Q194.77257 384.99374 194.2257 385.41562Q193.69444 385.82187 193.46007 385.97812L197.38194 385.97812L197.38194 387.65Z" fill-rule="nonzero"/><path fill="#757575" d="M258.967 383.55624Q259.24826 383.80624 259.42014 384.13437Q259.592 384.4625 259.592 385.00937Q259.592 385.61874 259.342 386.15Q259.10764 386.68124 258.60764 387.07187Q258.10764 387.43124 257.43576 387.63437Q256.7795 387.8375 255.82639 387.8375Q254.74826 387.8375 253.96701 387.66562Q253.20139 387.49374 252.71701 387.275L252.71701 385.36874L252.93576 385.36874Q253.43576 385.66562 254.13889 385.9Q254.84201 386.11874 255.42014 386.11874Q255.76389 386.11874 256.1545 386.07187Q256.56076 386.00937 256.842 385.82187Q257.04514 385.66562 257.17014 385.4625Q257.31076 385.25937 257.31076 384.85312Q257.31076 384.47812 257.12326 384.275Q256.9514 384.05624 256.67014 383.97812Q256.3889 383.88437 255.98264 383.88437Q255.57639 383.86874 255.23264 383.86874L254.74826 383.86874L254.74826 382.30624L255.24826 382.30624Q255.70139 382.30624 256.04514 382.275Q256.4045 382.24374 256.6545 382.13437Q256.9045 382.025 257.0295 381.85312Q257.17014 381.66562 257.17014 381.30624Q257.17014 381.04062 257.0295 380.88437Q256.9045 380.7125 256.7014 380.61874Q256.467 380.525 256.1545 380.49374Q255.84201 380.44687 255.62326 380.44687Q255.07639 380.44687 254.42014 380.63437Q253.77951 380.82187 253.18576 381.18124L252.96701 381.18124L252.96701 379.29062Q253.43576 379.10312 254.26389 378.93124Q255.09201 378.74374 255.95139 378.74374Q256.7639 378.74374 257.3889 378.88437Q258.0139 379.025 258.42014 379.275Q258.9045 379.55624 259.1389 379.97812Q259.37326 380.38437 259.37326 380.93124Q259.37326 381.65 258.92014 382.22812Q258.467 382.79062 257.73264 382.9625L257.73264 383.04062Q258.0295 383.07187 258.35764 383.19687Q258.68576 383.32187 258.967 383.55624Z" fill-rule="nonzero"/><path fill="#757575" d="M322.39584 385.63437L321.20834 385.63437L321.20834 387.68124L319.0521 387.68124L319.0521 385.63437L314.83334 385.63437L314.83334 383.99374L318.91147 378.93124L321.20834 378.93124L321.20834 384.04062L322.39584 384.04062L322.39584 385.63437ZM319.0521 384.04062L319.0521 380.9L316.52084 384.04062L319.0521 384.04062Z" fill-rule="nonzero"/><path fill="#757575" d="M384.52777 384.69687Q384.52777 385.36874 384.26215 385.9625Q384.01215 386.54062 383.52777 386.9625Q382.99652 387.4 382.2934 387.61874Q381.59027 387.8375 380.69965 387.8375Q379.63715 387.82187 378.9184 387.66562Q378.19965 387.50937 377.74652 387.30624L377.74652 385.36874L377.9809 385.36874Q378.51215 385.69687 379.12152 385.91562Q379.74652 386.11874 380.3559 386.11874Q380.7309 386.11874 381.15277 386.04062Q381.59027 385.94687 381.84027 385.72812Q382.0434 385.54062 382.13715 385.35312Q382.24652 385.16562 382.24652 384.775Q382.24652 384.4625 382.1059 384.24374Q381.96527 384.025 381.74652 383.9Q381.43402 383.69687 380.9809 383.63437Q380.5434 383.57187 380.18402 383.57187Q379.65277 383.57187 379.1684 383.66562Q378.68402 383.75937 378.32465 383.85312L378.07465 383.85312L378.07465 378.93124L384.27777 378.93124L384.27777 380.5875L380.18402 380.5875L380.18402 382.025Q380.37152 382.00937 380.63715 382.00937Q380.9184 381.99374 381.13715 381.99374Q381.8559 381.99374 382.4184 382.13437Q382.9809 382.25937 383.38715 382.50937Q383.93402 382.8375 384.2309 383.36874Q384.52777 383.9 384.52777 384.69687Z" fill-rule="nonzero"/><path fill="#757575" d="M447.1441 384.68124Q447.1441 385.35312 446.8941 385.94687Q446.65973 386.54062 446.2066 386.94687Q445.73785 387.36874 445.11285 387.60312Q444.48785 387.8375 443.6441 387.8375Q442.86285 387.8375 442.2066 387.61874Q441.56598 387.4 441.09723 386.9625Q440.56598 386.4625 440.28473 385.66562Q440.00348 384.86874 440.00348 383.75937Q440.00348 382.60312 440.2691 381.7125Q440.53473 380.82187 441.12848 380.15Q441.7066 379.49374 442.61285 379.13437Q443.53473 378.75937 444.80035 378.75937Q445.23785 378.75937 445.73785 378.82187Q446.25348 378.88437 446.40973 378.9L446.40973 380.61874L446.19098 380.61874Q446.0191 380.54062 445.6441 380.44687Q445.2691 380.35312 444.78473 380.35312Q443.65973 380.35312 443.03473 380.91562Q442.40973 381.4625 442.28473 382.44687Q442.73785 382.16562 443.23785 382.00937Q443.73785 381.8375 444.31598 381.8375Q444.8316 381.8375 445.25348 381.9625Q445.69098 382.07187 446.06598 382.32187Q446.56598 382.66562 446.84723 383.24374Q447.1441 383.82187 447.1441 384.68124ZM444.47223 385.99374Q444.65973 385.79062 444.7691 385.525Q444.87848 385.25937 444.87848 384.79062Q444.87848 384.35312 444.75348 384.0875Q444.62848 383.80624 444.40973 383.65Q444.2066 383.47812 443.90973 383.41562Q443.62848 383.35312 443.3316 383.35312Q443.06598 383.35312 442.78473 383.41562Q442.50348 383.47812 442.2691 383.57187Q442.2691 383.61874 442.25348 383.75937Q442.25348 383.9 442.25348 384.10312Q442.25348 384.82187 442.3941 385.29062Q442.55035 385.74374 442.78473 385.99374Q442.9566 386.18124 443.17535 386.275Q443.3941 386.35312 443.65973 386.35312Q443.84723 386.35312 444.0816 386.25937Q444.31598 386.16562 444.47223 385.99374Z" fill-rule="nonzero"/><path fill="#757575" d="M509.41666 380.66562L505.46353 387.65L502.96353 387.65L507.05728 380.5875L502.58853 380.5875L502.58853 378.93124L509.41666 378.93124L509.41666 380.66562Z" fill-rule="nonzero"/><path fill="#757575" d="M572.0642 385.2125Q572.0642 386.36874 571.07983 387.11874Q570.09546 387.85312 568.3611 387.85312Q567.39233 387.85312 566.70483 387.65Q566.01733 387.44687 565.5642 387.10312Q565.1267 386.75937 564.90796 386.29062Q564.6892 385.82187 564.6892 385.29062Q564.6892 384.63437 565.0642 384.13437Q565.45483 383.61874 566.40796 383.24374L566.40796 383.2125Q565.64233 382.85312 565.28296 382.32187Q564.9236 381.79062 564.9236 381.0875Q564.9236 380.05624 565.8767 379.4Q566.84546 378.72812 568.39233 378.72812Q570.0017 378.72812 570.9236 379.3375Q571.84546 379.93124 571.84546 380.93124Q571.84546 381.55624 571.45483 382.04062Q571.0642 382.525 570.26733 382.86874L570.26733 382.9Q571.1892 383.24374 571.6267 383.8375Q572.0642 384.41562 572.0642 385.2125ZM569.64233 381.18124Q569.64233 380.72812 569.2986 380.47812Q568.95483 380.2125 568.39233 380.2125Q568.1736 380.2125 567.95483 380.25937Q567.7361 380.30624 567.5642 380.41562Q567.39233 380.50937 567.26733 380.68124Q567.15796 380.8375 567.15796 381.04062Q567.15796 381.38437 567.3611 381.5875Q567.5642 381.775 568.0017 381.9625Q568.1736 382.04062 568.45483 382.15Q568.7361 382.24374 569.14233 382.36874Q569.40796 382.05624 569.51733 381.80624Q569.64233 381.55624 569.64233 381.18124ZM569.82983 385.30624Q569.82983 384.88437 569.6111 384.68124Q569.40796 384.4625 568.7517 384.18124Q568.5486 384.0875 568.1736 383.9625Q567.8142 383.82187 567.5642 383.72812Q567.3142 383.9625 567.1111 384.29062Q566.90796 384.61874 566.90796 385.025Q566.90796 385.63437 567.34546 385.99374Q567.78296 386.35312 568.4861 386.35312Q568.6736 386.35312 568.9236 386.30624Q569.1736 386.24374 569.3611 386.11874Q569.5642 385.97812 569.6892 385.80624Q569.82983 385.61874 569.82983 385.30624Z" fill-rule="nonzero"/><path fill="#757575" d="M634.30554 382.79062Q634.30554 383.9 634.0243 384.8375Q633.74304 385.775 633.1649 386.43124Q632.5399 387.11874 631.61804 387.47812Q630.7118 387.82187 629.4774 387.82187Q629.0399 387.82187 628.5399 387.75937Q628.0399 387.7125 627.88367 387.68124L627.88367 385.9625L628.11804 385.9625Q628.2899 386.04062 628.61804 386.13437Q628.94617 386.22812 629.50867 386.22812Q629.9618 386.22812 630.3993 386.11874Q630.8368 385.99374 631.1493 385.74374Q631.50867 385.49374 631.7274 385.10312Q631.94617 384.69687 632.0243 384.13437Q631.50867 384.43124 631.07117 384.5875Q630.63367 384.74374 629.99304 384.74374Q629.49304 384.74374 629.0399 384.63437Q628.6024 384.50937 628.2274 384.24374Q627.74304 383.9 627.44617 383.3375Q627.1649 382.775 627.1649 381.91562Q627.1649 380.50937 628.13367 379.63437Q629.11804 378.74374 630.69617 378.74374Q631.50867 378.74374 632.13367 378.9625Q632.7743 379.18124 633.2274 379.61874Q633.75867 380.11874 634.0243 380.9Q634.30554 381.68124 634.30554 382.79062ZM632.05554 382.4625Q632.05554 381.75937 631.9149 381.30624Q631.7899 380.8375 631.5399 380.5875Q631.36804 380.4 631.1493 380.32187Q630.93054 380.22812 630.68054 380.22812Q630.44617 380.22812 630.24304 380.30624Q630.0399 380.38437 629.8368 380.5875Q629.6649 380.775 629.5399 381.0875Q629.43054 381.38437 629.43054 381.80624Q629.43054 382.2125 629.55554 382.49374Q629.68054 382.775 629.8993 382.93124Q630.1024 383.0875 630.38367 383.15Q630.6649 383.2125 630.99304 383.2125Q631.24304 383.2125 631.55554 383.15Q631.86804 383.0875 632.0399 383.00937Q632.0399 382.94687 632.0399 382.8375Q632.05554 382.7125 632.05554 382.4625Z" fill-rule="nonzero"/><path fill="#757575" d="M691.8906 387.65L686.0625 387.65L686.0625 386.11874L687.90625 386.11874L687.90625 381.50937L686.0625 381.50937L686.0625 380.0875Q686.4844 380.0875 686.8594 380.04062Q687.25 379.99374 687.5156 379.86874Q687.8125 379.72812 687.96875 379.49374Q688.125 379.25937 688.1406 378.9L690.0781 378.9L690.0781 386.11874L691.8906 386.11874L691.8906 387.65ZM701.375 383.29062Q701.375 384.38437 701.1719 385.25937Q700.9844 386.11874 700.5625 386.68124Q700.125 387.24374 699.4375 387.54062Q698.7656 387.8375 697.7656 387.8375Q696.78125 387.8375 696.09375 387.54062Q695.40625 387.24374 694.9844 386.66562Q694.5469 386.10312 694.34375 385.24374Q694.15625 384.38437 694.15625 383.29062Q694.15625 382.15 694.3594 381.32187Q694.5625 380.47812 694.9844 379.9Q695.4219 379.32187 696.1094 379.04062Q696.8125 378.74374 697.7656 378.74374Q698.7656 378.74374 699.4375 379.04062Q700.125 379.3375 700.5625 379.93124Q700.9844 380.49374 701.1719 381.3375Q701.375 382.18124 701.375 383.29062ZM699.1094 383.29062Q699.1094 381.69687 698.7969 381.025Q698.4844 380.35312 697.7656 380.35312Q697.0469 380.35312 696.7344 381.025Q696.4219 381.69687 696.4219 383.29062Q696.4219 384.85312 696.7344 385.54062Q697.0625 386.2125 697.7656 386.2125Q698.46875 386.2125 698.78125 385.54062Q699.1094 384.85312 699.1094 383.29062Z" fill-rule="nonzero"/><path fill="#4285f4" d="M191.0 64.25C191.0 63.697716 191.44771 63.25 192.0 63.25L202.0 63.25C202.55229 63.25 203.0 63.697716 203.0 64.25L203.0 74.25C203.0 74.802284 202.55229 75.25 202.0 75.25L192.0 75.25C191.44771 75.25 191.0 74.802284 191.0 74.25Z" fill-rule="nonzero"/><path fill="#000000" d="M219.57812 71.578125Q219.57812 72.203125 219.3125 72.703125Q219.0625 73.203125 218.625 73.53125Q218.10938 73.921875 217.48438 74.09375Q216.875 74.25 215.92188 74.25L212.10938 74.25L212.10938 65.53125L215.5 65.53125Q216.5625 65.53125 217.04688 65.609375Q217.53125 65.671875 218.01562 65.90625Q218.51562 66.15625 218.75 66.578125Q219.0 67.0 219.0 67.546875Q219.0 68.1875 218.65625 68.671875Q218.32812 69.15625 217.71875 69.421875L217.71875 69.46875Q218.57812 69.640625 219.07812 70.171875Q219.57812 70.703125 219.57812 71.578125ZM216.70312 67.984375Q216.70312 67.78125 216.59375 67.5625Q216.48438 67.34375 216.20312 67.234375Q215.95312 67.140625 215.57812 67.140625Q215.21875 67.125 214.5625 67.125L214.35938 67.125L214.35938 68.96875L214.70312 68.96875Q215.23438 68.96875 215.60938 68.953125Q215.98438 68.9375 216.20312 68.828125Q216.51562 68.703125 216.60938 68.484375Q216.70312 68.265625 216.70312 67.984375ZM217.25 71.546875Q217.25 71.125 217.07812 70.90625Q216.92188 70.671875 216.53125 70.5625Q216.28125 70.484375 215.8125 70.484375Q215.34375 70.46875 214.84375 70.46875L214.35938 70.46875L214.35938 72.65625L214.51562 72.65625Q215.46875 72.65625 215.875 72.65625Q216.28125 72.640625 216.625 72.484375Q216.98438 72.34375 217.10938 72.109375Q217.25 71.859375 217.25 71.546875ZM229.17188 74.25L226.84375 74.25L226.25 72.484375L223.01562 72.484375L222.40625 74.25L220.14062 74.25L223.35938 65.53125L225.95312 65.53125L229.17188 74.25ZM225.70312 70.890625L224.625 67.75L223.5625 70.890625L225.70312 70.890625ZM236.34375 69.34375L235.6875 70.3125L233.8125 69.046875L233.875 71.125L232.625 71.125L232.67188 69.09375L230.82812 70.328125L230.20312 69.34375L232.28125 68.125L230.20312 66.890625L230.82812 65.90625L232.67188 67.15625L232.625 65.125L233.875 65.125L233.82812 67.171875L235.6875 65.921875L236.32812 66.90625L234.23438 68.125L236.34375 69.34375Z" fill-rule="nonzero"/><path fill="#db4437" d="M254.0 64.25C254.0 63.697716 254.44771 63.25 255.0 63.25L265.0 63.25C265.55228 63.25 266.0 63.697716 266.0 64.25L266.0 74.25C266.0 74.802284 265.55228 75.25 265.0 75.25L255.0 75.25C254.44771 75.25 254.0 74.802284 254.0 74.25Z" fill-rule="nonzero"/><path fill="#000000" d="M282.57812 71.578125Q282.57812 72.203125 282.3125 72.703125Q282.0625 73.203125 281.625 73.53125Q281.10938 73.921875 280.48438 74.09375Q279.875 74.25 278.92188 74.25L275.10938 74.25L275.10938 65.53125L278.5 65.53125Q279.5625 65.53125 280.04688 65.609375Q280.53125 65.671875 281.01562 65.90625Q281.51562 66.15625 281.75 66.578125Q282.0 67.0 282.0 67.546875Q282.0 68.1875 281.65625 68.671875Q281.32812 69.15625 280.71875 69.421875L280.71875 69.46875Q281.57812 69.640625 282.07812 70.171875Q282.57812 70.703125 282.57812 71.578125ZM279.70312 67.984375Q279.70312 67.78125 279.59375 67.5625Q279.48438 67.34375 279.20312 67.234375Q278.95312 67.140625 278.57812 67.140625Q278.21875 67.125 277.5625 67.125L277.35938 67.125L277.35938 68.96875L277.70312 68.96875Q278.23438 68.96875 278.60938 68.953125Q278.98438 68.9375 279.20312 68.828125Q279.51562 68.703125 279.60938 68.484375Q279.70312 68.265625 279.70312 67.984375ZM280.25 71.546875Q280.25 71.125 280.07812 70.90625Q279.92188 70.671875 279.53125 70.5625Q279.28125 70.484375 278.8125 70.484375Q278.34375 70.46875 277.84375 70.46875L277.35938 70.46875L277.35938 72.65625L277.51562 72.65625Q278.46875 72.65625 278.875 72.65625Q279.28125 72.640625 279.625 72.484375Q279.98438 72.34375 280.10938 72.109375Q280.25 71.859375 280.25 71.546875ZM292.17188 74.25L289.84375 74.25L289.25 72.484375L286.01562 72.484375L285.40625 74.25L283.14062 74.25L286.35938 65.53125L288.95312 65.53125L292.17188 74.25ZM288.70312 70.890625L287.625 67.75L286.5625 70.890625L288.70312 70.890625ZM299.34375 69.34375L298.6875 70.3125L296.8125 69.046875L296.875 71.125L295.625 71.125L295.67188 69.09375L293.82812 70.328125L293.20312 69.34375L295.28125 68.125L293.20312 66.890625L293.82812 65.90625L295.67188 67.15625L295.625 65.125L296.875 65.125L296.82812 67.171875L298.6875 65.921875L299.32812 66.90625L297.23438 68.125L299.34375 69.34375ZM314.03125 65.53125L310.84375 74.25L308.32812 74.25L305.14062 65.53125L307.5 65.53125L309.60938 71.65625L311.71875 65.53125L314.03125 65.53125ZM318.98438 72.53125L318.98438 71.15625Q318.54688 71.203125 318.04688 71.265625Q317.5625 71.3125 317.29688 71.40625Q316.98438 71.5 316.8125 71.6875Q316.65625 71.875 316.65625 72.1875Q316.65625 72.390625 316.6875 72.53125Q316.71875 72.65625 316.85938 72.765625Q317.0 72.890625 317.1875 72.953125Q317.375 73.0 317.76562 73.0Q318.07812 73.0 318.40625 72.875Q318.73438 72.75 318.98438 72.53125ZM318.98438 73.546875Q318.8125 73.6875 318.5625 73.875Q318.3125 74.046875 318.07812 74.15625Q317.78125 74.296875 317.4375 74.359375Q317.10938 74.421875 316.70312 74.421875Q315.76562 74.421875 315.125 73.84375Q314.5 73.265625 314.5 72.359375Q314.5 71.640625 314.82812 71.1875Q315.15625 70.734375 315.73438 70.46875Q316.32812 70.203125 317.1875 70.09375Q318.0625 69.984375 319.0 69.921875L319.0 69.890625Q319.0 69.34375 318.54688 69.140625Q318.10938 68.921875 317.23438 68.921875Q316.71875 68.921875 316.125 69.109375Q315.53125 69.296875 315.26562 69.390625L315.07812 69.390625L315.07812 67.8125Q315.40625 67.71875 316.15625 67.609375Q316.92188 67.484375 317.67188 67.484375Q319.46875 67.484375 320.26562 68.046875Q321.07812 68.59375 321.07812 69.765625L321.07812 74.25L318.98438 74.25L318.98438 73.546875ZM327.76562 69.671875L327.57812 69.671875Q327.4375 69.625 327.14062 69.609375Q326.84375 69.578125 326.64062 69.578125Q326.20312 69.578125 325.84375 69.640625Q325.5 69.703125 325.10938 69.84375L325.10938 74.25L323.0 74.25L323.0 67.671875L325.10938 67.671875L325.10938 68.640625Q325.79688 68.03125 326.3125 67.84375Q326.82812 67.640625 327.26562 67.640625Q327.375 67.640625 327.51562 67.65625Q327.65625 67.65625 327.76562 67.671875L327.76562 69.671875ZM331.10938 74.25L329.0 74.25L329.0 67.671875L331.10938 67.671875L331.10938 74.25ZM331.17188 66.734375L328.9375 66.734375L328.9375 65.125L331.17188 65.125L331.17188 66.734375ZM336.98438 72.53125L336.98438 71.15625Q336.54688 71.203125 336.04688 71.265625Q335.5625 71.3125 335.29688 71.40625Q334.98438 71.5 334.8125 71.6875Q334.65625 71.875 334.65625 72.1875Q334.65625 72.390625 334.6875 72.53125Q334.71875 72.65625 334.85938 72.765625Q335.0 72.890625 335.1875 72.953125Q335.375 73.0 335.76562 73.0Q336.07812 73.0 336.40625 72.875Q336.73438 72.75 336.98438 72.53125ZM336.98438 73.546875Q336.8125 73.6875 336.5625 73.875Q336.3125 74.046875 336.07812 74.15625Q335.78125 74.296875 335.4375 74.359375Q335.10938 74.421875 334.70312 74.421875Q333.76562 74.421875 333.125 73.84375Q332.5 73.265625 332.5 72.359375Q332.5 71.640625 332.82812 71.1875Q333.15625 70.734375 333.73438 70.46875Q334.32812 70.203125 335.1875 70.09375Q336.0625 69.984375 337.0 69.921875L337.0 69.890625Q337.0 69.34375 336.54688 69.140625Q336.10938 68.921875 335.23438 68.921875Q334.71875 68.921875 334.125 69.109375Q333.53125 69.296875 333.26562 69.390625L333.07812 69.390625L333.07812 67.8125Q333.40625 67.71875 334.15625 67.609375Q334.92188 67.484375 335.67188 67.484375Q337.46875 67.484375 338.26562 68.046875Q339.07812 68.59375 339.07812 69.765625L339.07812 74.25L336.98438 74.25L336.98438 73.546875ZM347.60938 74.25L345.48438 74.25L345.48438 70.984375Q345.48438 70.59375 345.4375 70.203125Q345.40625 69.796875 345.29688 69.609375Q345.1875 69.390625 344.95312 69.296875Q344.73438 69.1875 344.32812 69.1875Q344.04688 69.1875 343.75 69.28125Q343.45312 69.375 343.10938 69.578125L343.10938 74.25L341.0 74.25L341.0 67.671875L343.10938 67.671875L343.10938 68.390625Q343.67188 67.953125 344.1875 67.71875Q344.70312 67.484375 345.34375 67.484375Q346.40625 67.484375 347.0 68.109375Q347.60938 68.734375 347.60938 69.96875L347.60938 74.25ZM353.20312 74.1875Q352.85938 74.28125 352.48438 74.328125Q352.10938 74.375 351.54688 74.375Q350.32812 74.375 349.71875 73.875Q349.125 73.375 349.125 72.171875L349.125 69.09375L348.25 69.09375L348.25 67.671875L349.125 67.671875L349.125 65.78125L351.23438 65.78125L351.23438 67.671875L353.20312 67.671875L353.20312 69.09375L351.23438 69.09375L351.23438 71.4375Q351.23438 71.78125 351.23438 72.046875Q351.23438 72.296875 351.32812 72.5Q351.40625 72.703125 351.60938 72.828125Q351.82812 72.9375 352.21875 72.9375Q352.39062 72.9375 352.65625 72.875Q352.92188 72.796875 353.03125 72.75L353.20312 72.75L353.20312 74.1875Z" fill-rule="nonzero"/><path fill="#f4b400" d="M369.0 64.25C369.0 63.697716 369.44772 63.25 370.0 63.25L380.0 63.25C380.55228 63.25 381.0 63.697716 381.0 64.25L381.0 74.25C381.0 74.802284 380.55228 75.25 380.0 75.25L370.0 75.25C369.44772 75.25 369.0 74.802284 369.0 74.25Z" fill-rule="nonzero"/><path fill="#000000" d="M394.82812 74.25L389.71875 74.25L389.71875 72.703125L391.15625 72.703125L391.15625 67.078125L389.71875 67.078125L389.71875 65.53125L394.82812 65.53125L394.82812 67.078125L393.40625 67.078125L393.40625 72.703125L394.82812 72.703125L394.82812 74.25ZM402.60938 74.25L400.48438 74.25L400.48438 70.984375Q400.48438 70.59375 400.4375 70.203125Q400.40625 69.796875 400.29688 69.609375Q400.1875 69.390625 399.95312 69.296875Q399.73438 69.1875 399.32812 69.1875Q399.04688 69.1875 398.75 69.28125Q398.45312 69.375 398.10938 69.578125L398.10938 74.25L396.0 74.25L396.0 67.671875L398.10938 67.671875L398.10938 68.390625Q398.67188 67.953125 399.1875 67.71875Q399.70312 67.484375 400.34375 67.484375Q401.40625 67.484375 402.0 68.109375Q402.60938 68.734375 402.60938 69.96875L402.60938 74.25ZM414.48438 67.671875L412.45312 74.25L410.21875 74.25L408.875 69.8125L407.54688 74.25L405.28125 74.25L403.26562 67.671875L405.48438 67.671875L406.60938 72.203125L408.01562 67.671875L409.875 67.671875L411.21875 72.203125L412.32812 67.671875L414.48438 67.671875ZM419.98438 72.53125L419.98438 71.15625Q419.54688 71.203125 419.04688 71.265625Q418.5625 71.3125 418.29688 71.40625Q417.98438 71.5 417.8125 71.6875Q417.65625 71.875 417.65625 72.1875Q417.65625 72.390625 417.6875 72.53125Q417.71875 72.65625 417.85938 72.765625Q418.0 72.890625 418.1875 72.953125Q418.375 73.0 418.76562 73.0Q419.07812 73.0 419.40625 72.875Q419.73438 72.75 419.98438 72.53125ZM419.98438 73.546875Q419.8125 73.6875 419.5625 73.875Q419.3125 74.046875 419.07812 74.15625Q418.78125 74.296875 418.4375 74.359375Q418.10938 74.421875 417.70312 74.421875Q416.76562 74.421875 416.125 73.84375Q415.5 73.265625 415.5 72.359375Q415.5 71.640625 415.82812 71.1875Q416.15625 70.734375 416.73438 70.46875Q417.32812 70.203125 418.1875 70.09375Q419.0625 69.984375 420.0 69.921875L420.0 69.890625Q420.0 69.34375 419.54688 69.140625Q419.10938 68.921875 418.23438 68.921875Q417.71875 68.921875 417.125 69.109375Q416.53125 69.296875 416.26562 69.390625L416.07812 69.390625L416.07812 67.8125Q416.40625 67.71875 417.15625 67.609375Q417.92188 67.484375 418.67188 67.484375Q420.46875 67.484375 421.26562 68.046875Q422.07812 68.59375 422.07812 69.765625L422.07812 74.25L419.98438 74.25L419.98438 73.546875ZM428.76562 69.671875L428.57812 69.671875Q428.4375 69.625 428.14062 69.609375Q427.84375 69.578125 427.64062 69.578125Q427.20312 69.578125 426.84375 69.640625Q426.5 69.703125 426.10938 69.84375L426.10938 74.25L424.0 74.25L424.0 67.671875L426.10938 67.671875L426.10938 68.640625Q426.79688 68.03125 427.3125 67.84375Q427.82812 67.640625 428.26562 67.640625Q428.375 67.640625 428.51562 67.65625Q428.65625 67.65625 428.76562 67.671875L428.76562 69.671875ZM436.39062 74.25L434.28125 74.25L434.28125 73.5625Q433.73438 74.015625 433.26562 74.234375Q432.79688 74.4375 432.17188 74.4375Q430.96875 74.4375 430.25 73.515625Q429.53125 72.578125 429.53125 71.015625Q429.53125 70.171875 429.76562 69.53125Q430.01562 68.875 430.4375 68.40625Q430.82812 67.96875 431.39062 67.734375Q431.96875 67.484375 432.54688 67.484375Q433.125 67.484375 433.5 67.609375Q433.89062 67.734375 434.28125 67.9375L434.28125 65.125L436.39062 65.125L436.39062 74.25ZM434.28125 72.4375L434.28125 69.203125Q434.0625 69.109375 433.8125 69.078125Q433.57812 69.03125 433.35938 69.03125Q432.53125 69.03125 432.10938 69.546875Q431.70312 70.0625 431.70312 70.984375Q431.70312 71.953125 432.03125 72.390625Q432.375 72.828125 433.10938 72.828125Q433.39062 72.828125 433.71875 72.71875Q434.04688 72.609375 434.28125 72.4375ZM449.09375 71.5Q449.09375 72.796875 448.0 73.609375Q446.90625 74.40625 445.03125 74.40625Q443.95312 74.40625 443.14062 74.21875Q442.34375 74.03125 441.64062 73.734375L441.64062 71.640625L441.89062 71.640625Q442.57812 72.203125 443.4375 72.5Q444.3125 72.796875 445.10938 72.796875Q445.3125 72.796875 445.64062 72.765625Q445.98438 72.71875 446.1875 72.640625Q446.45312 72.53125 446.60938 72.375Q446.78125 72.21875 446.78125 71.90625Q446.78125 71.625 446.53125 71.421875Q446.29688 71.203125 445.82812 71.09375Q445.34375 70.984375 444.78125 70.890625Q444.23438 70.78125 443.76562 70.609375Q442.65625 70.265625 442.17188 69.65625Q441.6875 69.03125 441.6875 68.125Q441.6875 66.90625 442.78125 66.140625Q443.875 65.359375 445.59375 65.359375Q446.45312 65.359375 447.29688 65.53125Q448.14062 65.703125 448.75 65.953125L448.75 67.96875L448.51562 67.96875Q447.98438 67.546875 447.21875 67.265625Q446.45312 66.96875 445.65625 66.96875Q445.375 66.96875 445.09375 67.015625Q444.82812 67.046875 444.5625 67.15625Q444.32812 67.234375 444.15625 67.421875Q444.0 67.59375 444.0 67.828125Q444.0 68.171875 444.26562 68.359375Q444.53125 68.546875 445.26562 68.6875Q445.75 68.796875 446.1875 68.890625Q446.625 68.984375 447.14062 69.140625Q448.14062 69.46875 448.60938 70.046875Q449.09375 70.609375 449.09375 71.5ZM457.85938 70.875Q457.85938 71.6875 457.60938 72.359375Q457.35938 73.015625 456.96875 73.453125Q456.54688 73.90625 456.0 74.140625Q455.46875 74.375 454.85938 74.375Q454.29688 74.375 453.90625 74.25Q453.51562 74.140625 453.10938 73.921875L453.10938 76.671875L451.0 76.671875L451.0 67.671875L453.10938 67.671875L453.10938 68.359375Q453.59375 67.96875 454.09375 67.734375Q454.60938 67.484375 455.26562 67.484375Q456.5 67.484375 457.17188 68.390625Q457.85938 69.296875 457.85938 70.875ZM455.6875 70.90625Q455.6875 69.953125 455.35938 69.515625Q455.03125 69.078125 454.32812 69.078125Q454.03125 69.078125 453.70312 69.171875Q453.39062 69.265625 453.10938 69.4375L453.10938 72.75Q453.3125 72.828125 453.54688 72.859375Q453.79688 72.875 454.03125 72.875Q454.875 72.875 455.28125 72.390625Q455.6875 71.890625 455.6875 70.90625ZM461.10938 74.25L459.0 74.25L459.0 67.671875L461.10938 67.671875L461.10938 74.25ZM461.17188 66.734375L458.9375 66.734375L458.9375 65.125L461.17188 65.125L461.17188 66.734375ZM467.76562 69.671875L467.57812 69.671875Q467.4375 69.625 467.14062 69.609375Q466.84375 69.578125 466.64062 69.578125Q466.20312 69.578125 465.84375 69.640625Q465.5 69.703125 465.10938 69.84375L465.10938 74.25L463.0 74.25L463.0 67.671875L465.10938 67.671875L465.10938 68.640625Q465.79688 68.03125 466.3125 67.84375Q466.82812 67.640625 467.26562 67.640625Q467.375 67.640625 467.51562 67.65625Q467.65625 67.65625 467.76562 67.671875L467.76562 69.671875ZM472.98438 72.53125L472.98438 71.15625Q472.54688 71.203125 472.04688 71.265625Q471.5625 71.3125 471.29688 71.40625Q470.98438 71.5 470.8125 71.6875Q470.65625 71.875 470.65625 72.1875Q470.65625 72.390625 470.6875 72.53125Q470.71875 72.65625 470.85938 72.765625Q471.0 72.890625 471.1875 72.953125Q471.375 73.0 471.76562 73.0Q472.07812 73.0 472.40625 72.875Q472.73438 72.75 472.98438 72.53125ZM472.98438 73.546875Q472.8125 73.6875 472.5625 73.875Q472.3125 74.046875 472.07812 74.15625Q471.78125 74.296875 471.4375 74.359375Q471.10938 74.421875 470.70312 74.421875Q469.76562 74.421875 469.125 73.84375Q468.5 73.265625 468.5 72.359375Q468.5 71.640625 468.82812 71.1875Q469.15625 70.734375 469.73438 70.46875Q470.32812 70.203125 471.1875 70.09375Q472.0625 69.984375 473.0 69.921875L473.0 69.890625Q473.0 69.34375 472.54688 69.140625Q472.10938 68.921875 471.23438 68.921875Q470.71875 68.921875 470.125 69.109375Q469.53125 69.296875 469.26562 69.390625L469.07812 69.390625L469.07812 67.8125Q469.40625 67.71875 470.15625 67.609375Q470.92188 67.484375 471.67188 67.484375Q473.46875 67.484375 474.26562 68.046875Q475.07812 68.59375 475.07812 69.765625L475.07812 74.25L472.98438 74.25L472.98438 73.546875ZM479.10938 74.25L477.0 74.25L477.0 65.125L479.10938 65.125L479.10938 74.25Z" fill-rule="nonzero"/><path stroke="#3d85c6" stroke-width="4.0" stroke-linecap="butt" stroke-dasharray="4.0,5.0" d="M496.0 69.25L509.0 69.25" fill-rule="nonzero"/><path stroke="#ff0000" stroke-width="4.0" stroke-linecap="butt" stroke-opacity="0.9019608" stroke-dasharray="4.0,5.0" d="M525.0 69.25L538.0 69.25" fill-rule="nonzero"/><path stroke="#f1c232" stroke-width="4.0" stroke-linecap="butt" stroke-dasharray="4.0,5.0" d="M554.0 69.25L567.0 69.25" fill-rule="nonzero"/><path fill="#434343" d="M282.60938 34.584373L287.26562 35.990623Q286.76562 38.06875 285.85938 39.240623Q284.96875 40.4125 283.64062 41.00625Q282.3125 41.6 280.29688 41.6Q277.875 41.6 276.29688 40.88125Q274.71875 40.146873 273.57812 38.35Q272.45312 36.5375 272.45312 33.75625Q272.45312 30.021873 274.45312 28.006248Q276.46875 25.974998 280.09375 25.974998Q282.92188 25.974998 284.57812 27.146873Q286.23438 28.318748 287.17188 31.131248L282.45312 32.19375Q282.15625 31.240623 281.98438 30.974998Q281.67188 30.553123 281.21875 30.334373Q280.76562 30.099998 280.20312 30.099998Q278.90625 30.099998 278.23438 31.115623Q277.6875 31.928123 277.6875 33.725Q277.6875 35.975 278.29688 36.725Q278.92188 37.475 280.04688 37.475Q281.125 37.475 281.67188 36.865623Q282.23438 36.25625 282.60938 34.584373ZM288.21875 35.7875Q288.21875 33.240623 289.9375 31.584373Q291.67188 29.928123 294.54688 29.928123Q297.84375 29.928123 299.5625 31.881248Q300.9375 33.44375 300.9375 35.725Q300.9375 38.2875 299.23438 39.94375Q297.53125 41.584373 294.5625 41.584373Q291.92188 41.584373 290.25 40.225Q288.21875 38.521873 288.21875 35.7875ZM293.01562 35.771873Q293.01562 37.00625 293.46875 37.553123Q293.92188 38.084373 294.57812 38.084373Q295.25 38.084373 295.6875 37.553123Q296.14062 37.021873 296.14062 35.740623Q296.14062 34.553123 295.6875 34.021873Q295.23438 33.475 294.60938 33.475Q293.92188 33.475 293.46875 34.021873Q293.01562 34.553123 293.01562 35.771873ZM301.73438 30.162498L306.25 30.162498L306.25 30.974998Q306.40625 30.803123 307.29688 30.365623Q308.1875 29.928123 309.4375 29.928123Q310.78125 29.928123 311.60938 30.428123Q312.4375 30.928123 312.67188 31.381248Q313.26562 30.740623 314.10938 30.334373Q314.96875 29.928123 316.1875 29.928123Q318.03125 29.928123 319.07812 31.053123Q320.14062 32.1625 320.14062 34.428123L320.14062 41.35L315.34375 41.35L315.34375 35.0375Q315.34375 34.475 315.15625 34.240623Q314.875 33.865623 314.48438 33.865623Q313.96875 33.865623 313.64062 34.25625Q313.32812 34.63125 313.32812 35.584373L313.32812 41.35L308.53125 41.35L308.53125 35.225Q308.53125 34.615623 308.46875 34.428123Q308.39062 34.1625 308.17188 34.00625Q307.96875 33.834373 307.6875 33.834373Q307.1875 33.834373 306.85938 34.225Q306.53125 34.615623 306.53125 35.646873L306.53125 41.35L301.73438 41.35L301.73438 30.162498ZM321.71875 45.303123L321.71875 30.162498L326.25 30.162498L326.25 30.943748Q326.35938 30.803123 327.07812 30.443748Q328.03125 29.928123 329.1875 29.928123Q331.46875 29.928123 332.70312 31.662498Q333.95312 33.396873 333.95312 35.865623Q333.95312 38.615623 332.59375 40.1Q331.23438 41.584373 329.17188 41.584373Q328.17188 41.584373 327.32812 41.240623Q326.5 40.896873 326.48438 40.7875L326.54688 45.303123L321.71875 45.303123ZM326.51562 35.7875Q326.51562 36.865623 326.92188 37.334373Q327.32812 37.803123 327.9375 37.803123Q328.4375 37.803123 328.79688 37.365623Q329.15625 36.928123 329.15625 35.69375Q329.15625 34.584373 328.78125 34.13125Q328.40625 33.6625 327.89062 33.6625Q327.3125 33.6625 326.90625 34.13125Q326.51562 34.6 326.51562 35.7875ZM346.4375 41.35L341.92188 41.35L341.92188 40.428123Q341.76562 40.63125 340.82812 41.115623Q339.90625 41.584373 338.57812 41.584373Q336.76562 41.584373 335.70312 40.475Q334.65625 39.365623 334.65625 37.178123L334.65625 30.162498L339.46875 30.162498L339.46875 36.271873Q339.46875 37.1 339.71875 37.38125Q339.96875 37.6625 340.4375 37.6625Q340.96875 37.6625 341.3125 37.25625Q341.65625 36.834373 341.65625 35.56875L341.65625 30.162498L346.4375 30.162498L346.4375 41.35ZM353.3125 25.974998L353.3125 30.162498L355.5 30.162498L355.5 33.88125L353.3125 33.88125L353.3125 37.146873Q353.3125 37.709373 353.39062 37.834373Q353.45312 37.959373 353.71875 37.959373Q354.09375 37.959373 355.28125 37.584373L355.67188 41.1625Q353.8125 41.584373 352.48438 41.584373Q350.89062 41.584373 350.07812 41.146873Q349.28125 40.709373 348.89062 39.834373Q348.51562 38.94375 348.51562 37.13125L348.51562 33.88125L347.04688 33.88125L347.04688 30.162498L348.51562 30.162498L348.51562 28.412498L353.3125 25.974998ZM361.01562 34.365623L356.45312 33.896873Q356.76562 32.365623 357.21875 31.724998Q357.67188 31.084373 358.51562 30.615623Q359.125 30.271873 360.14062 30.099998Q361.15625 29.928123 362.29688 29.928123Q364.10938 29.928123 365.26562 30.146873Q366.4375 30.365623 367.23438 31.053123Q367.82812 31.584373 368.14062 32.475Q368.46875 33.35 368.46875 34.1625L368.46875 38.740623Q368.46875 39.428123 368.54688 39.803123Q368.64062 40.1625 369.21875 41.35L364.57812 41.35Q364.23438 40.69375 364.15625 40.459373Q364.07812 40.209373 364.25 40.146873Q363.84375 40.771873 363.0 41.115623Q361.875 41.584373 360.40625 41.584373Q358.39062 41.584373 357.29688 40.615623Q356.21875 39.646873 356.21875 38.19375Q356.21875 36.865623 357.01562 35.990623Q357.78125 35.115623 359.79688 34.709373Q362.01562 34.2875 362.65625 34.115623Q363.3125 33.928123 363.76562 33.740623Q363.76562 33.459373 363.57812 33.2875Q363.40625 33.1 362.8125 33.1Q361.95312 33.1 361.5625 33.35Q361.3125 33.521873 361.01562 34.365623ZM363.76562 36.6Q363.48438 36.709373 362.57812 36.928123Q361.46875 37.225 361.21875 37.475Q361.01562 37.6625 361.01562 37.9125Q361.01562 38.19375 361.21875 38.38125Q361.42188 38.56875 361.89062 38.56875Q362.45312 38.56875 362.92188 38.303123Q363.39062 38.021873 363.57812 37.6625Q363.76562 37.303123 363.76562 36.6625L363.76562 36.6ZM375.3125 25.974998L375.3125 30.162498L377.5 30.162498L377.5 33.88125L375.3125 33.88125L375.3125 37.146873Q375.3125 37.709373 375.39062 37.834373Q375.45312 37.959373 375.71875 37.959373Q376.09375 37.959373 377.28125 37.584373L377.67188 41.1625Q375.8125 41.584373 374.48438 41.584373Q372.89062 41.584373 372.07812 41.146873Q371.28125 40.709373 370.89062 39.834373Q370.51562 38.94375 370.51562 37.13125L370.51562 33.88125L369.04688 33.88125L369.04688 30.162498L370.51562 30.162498L370.51562 28.412498L375.3125 25.974998ZM378.84375 26.224998L383.64062 26.224998L383.64062 29.740623L378.84375 29.740623L378.84375 26.224998ZM378.84375 30.162498L383.64062 30.162498L383.64062 41.35L378.84375 41.35L378.84375 30.162498ZM385.21875 35.7875Q385.21875 33.240623 386.9375 31.584373Q388.67188 29.928123 391.54688 29.928123Q394.84375 29.928123 396.5625 31.881248Q397.9375 33.44375 397.9375 35.725Q397.9375 38.2875 396.23438 39.94375Q394.53125 41.584373 391.5625 41.584373Q388.92188 41.584373 387.25 40.225Q385.21875 38.521873 385.21875 35.7875ZM390.01562 35.771873Q390.01562 37.00625 390.46875 37.553123Q390.92188 38.084373 391.57812 38.084373Q392.25 38.084373 392.6875 37.553123Q393.14062 37.021873 393.14062 35.740623Q393.14062 34.553123 392.6875 34.021873Q392.23438 33.475 391.60938 33.475Q390.92188 33.475 390.46875 34.021873Q390.01562 34.553123 390.01562 35.771873ZM398.70312 30.162498L403.21875 30.162498L403.21875 31.099998Q403.375 30.896873 404.3125 30.412498Q405.25 29.928123 406.5625 29.928123Q408.375 29.928123 409.42188 31.037498Q410.48438 32.146873 410.48438 34.35L410.48438 41.35L405.67188 41.35L405.67188 35.240623Q405.67188 34.4125 405.42188 34.146873Q405.17188 33.865623 404.70312 33.865623Q404.17188 33.865623 403.82812 34.2875Q403.48438 34.69375 403.48438 35.959373L403.48438 41.35L398.70312 41.35L398.70312 30.162498ZM416.01562 34.365623L411.45312 33.896873Q411.76562 32.365623 412.21875 31.724998Q412.67188 31.084373 413.51562 30.615623Q414.125 30.271873 415.14062 30.099998Q416.15625 29.928123 417.29688 29.928123Q419.10938 29.928123 420.26562 30.146873Q421.4375 30.365623 422.23438 31.053123Q422.82812 31.584373 423.14062 32.475Q423.46875 33.35 423.46875 34.1625L423.46875 38.740623Q423.46875 39.428123 423.54688 39.803123Q423.64062 40.1625 424.21875 41.35L419.57812 41.35Q419.23438 40.69375 419.15625 40.459373Q419.07812 40.209373 419.25 40.146873Q418.84375 40.771873 418.0 41.115623Q416.875 41.584373 415.40625 41.584373Q413.39062 41.584373 412.29688 40.615623Q411.21875 39.646873 411.21875 38.19375Q411.21875 36.865623 412.01562 35.990623Q412.78125 35.115623 414.79688 34.709373Q417.01562 34.2875 417.65625 34.115623Q418.3125 33.928123 418.76562 33.740623Q418.76562 33.459373 418.57812 33.2875Q418.40625 33.1 417.8125 33.1Q416.95312 33.1 416.5625 33.35Q416.3125 33.521873 416.01562 34.365623ZM418.76562 36.6Q418.48438 36.709373 417.57812 36.928123Q416.46875 37.225 416.21875 37.475Q416.01562 37.6625 416.01562 37.9125Q416.01562 38.19375 416.21875 38.38125Q416.42188 38.56875 416.89062 38.56875Q417.45312 38.56875 417.92188 38.303123Q418.39062 38.021873 418.57812 37.6625Q418.76562 37.303123 418.76562 36.6625L418.76562 36.6ZM424.84375 26.224998L429.64062 26.224998L429.64062 41.35L424.84375 41.35L424.84375 26.224998ZM444.3125 25.974998L444.3125 30.162498L446.5 30.162498L446.5 33.88125L444.3125 33.88125L444.3125 37.146873Q444.3125 37.709373 444.39062 37.834373Q444.45312 37.959373 444.71875 37.959373Q445.09375 37.959373 446.28125 37.584373L446.67188 41.1625Q444.8125 41.584373 443.48438 41.584373Q441.89062 41.584373 441.07812 41.146873Q440.28125 40.709373 439.89062 39.834373Q439.51562 38.94375 439.51562 37.13125L439.51562 33.88125L438.04688 33.88125L438.04688 30.162498L439.51562 30.162498L439.51562 28.412498L444.3125 25.974998ZM447.84375 26.224998L452.64062 26.224998L452.64062 29.740623L447.84375 29.740623L447.84375 26.224998ZM447.84375 30.162498L452.64062 30.162498L452.64062 41.35L447.84375 41.35L447.84375 30.162498ZM454.73438 30.162498L459.25 30.162498L459.25 30.974998Q459.40625 30.803123 460.29688 30.365623Q461.1875 29.928123 462.4375 29.928123Q463.78125 29.928123 464.60938 30.428123Q465.4375 30.928123 465.67188 31.381248Q466.26562 30.740623 467.10938 30.334373Q467.96875 29.928123 469.1875 29.928123Q471.03125 29.928123 472.07812 31.053123Q473.14062 32.1625 473.14062 34.428123L473.14062 41.35L468.34375 41.35L468.34375 35.0375Q468.34375 34.475 468.15625 34.240623Q467.875 33.865623 467.48438 33.865623Q466.96875 33.865623 466.64062 34.25625Q466.32812 34.63125 466.32812 35.584373L466.32812 41.35L461.53125 41.35L461.53125 35.225Q461.53125 34.615623 461.46875 34.428123Q461.39062 34.1625 461.17188 34.00625Q460.96875 33.834373 460.6875 33.834373Q460.1875 33.834373 459.85938 34.225Q459.53125 34.615623 459.53125 35.646873L459.53125 41.35L454.73438 41.35L454.73438 30.162498ZM487.03125 37.146873L479.10938 37.146873Q479.15625 37.521873 479.48438 37.896873Q479.9375 38.44375 480.67188 38.44375Q481.15625 38.44375 481.57812 38.19375Q481.84375 38.053123 482.29688 37.475L487.0625 37.9125Q485.79688 40.115623 484.42188 40.85Q483.0625 41.584373 480.59375 41.584373Q478.4375 41.584373 477.15625 40.959373Q475.875 40.334373 475.03125 38.975Q474.20312 37.6 474.20312 35.771873Q474.20312 33.178123 475.875 31.553123Q477.54688 29.928123 480.46875 29.928123Q482.79688 29.928123 484.1875 30.662498Q485.57812 31.381248 486.29688 32.771873Q487.03125 34.146873 487.03125 36.2875L487.03125 37.146873ZM482.125 34.428123Q482.07812 33.88125 481.67188 33.490623Q481.28125 33.1 480.64062 33.1Q479.89062 33.1 479.45312 33.69375Q479.15625 34.06875 479.10938 34.428123L482.125 34.428123Z" fill-rule="nonzero"/></svg>